<?xml version="1.0" encoding="utf-8" standalone="no"?>
<!DOCTYPE svg PUBLIC "-//W3C//DTD SVG 1.1//EN"
  "http://www.w3.org/Graphics/SVG/1.1/DTD/svg11.dtd">
<!-- Created with matplotlib (https://matplotlib.org/) -->
<svg height="345.6pt" version="1.1" viewBox="0 0 460.8 345.6" width="460.8pt" xmlns="http://www.w3.org/2000/svg" xmlns:xlink="http://www.w3.org/1999/xlink">
 <metadata>
  <rdf:RDF xmlns:cc="http://creativecommons.org/ns#" xmlns:dc="http://purl.org/dc/elements/1.1/" xmlns:rdf="http://www.w3.org/1999/02/22-rdf-syntax-ns#">
   <cc:Work>
    <dc:type rdf:resource="http://purl.org/dc/dcmitype/StillImage"/>
    <dc:date>2021-04-23T05:02:15.841354</dc:date>
    <dc:format>image/svg+xml</dc:format>
    <dc:creator>
     <cc:Agent>
      <dc:title>Matplotlib v3.3.4, https://matplotlib.org/</dc:title>
     </cc:Agent>
    </dc:creator>
   </cc:Work>
  </rdf:RDF>
 </metadata>
 <defs>
  <style type="text/css">*{stroke-linecap:butt;stroke-linejoin:round;}</style>
 </defs>
 <g id="figure_1">
  <g id="patch_1">
   <path d="M 0 345.6 
L 460.8 345.6 
L 460.8 0 
L 0 0 
z
" style="fill:#ffffff;"/>
  </g>
  <g id="axes_1">
   <g id="patch_2">
    <path d="M 57.6 307.584 
L 414.72 307.584 
L 414.72 41.472 
L 57.6 41.472 
z
" style="fill:#ffffff;"/>
   </g>
   <g id="matplotlib.axis_1">
    <g id="xtick_1">
     <g id="line2d_1">
      <defs>
       <path d="M 0 0 
L 0 3.5 
" id="m8c04449150" style="stroke:#000000;stroke-width:0.8;"/>
      </defs>
      <g>
       <use style="stroke:#000000;stroke-width:0.8;" x="92.837949" xlink:href="#m8c04449150" y="307.584"/>
      </g>
     </g>
     <g id="text_1">
      <!-- 14 -->
      <g transform="translate(86.475449 322.182437)scale(0.1 -0.1)">
       <defs>
        <path d="M 12.40625 8.296875 
L 28.515625 8.296875 
L 28.515625 63.921875 
L 10.984375 60.40625 
L 10.984375 69.390625 
L 28.421875 72.90625 
L 38.28125 72.90625 
L 38.28125 8.296875 
L 54.390625 8.296875 
L 54.390625 0 
L 12.40625 0 
z
" id="DejaVuSans-49"/>
        <path d="M 37.796875 64.3125 
L 12.890625 25.390625 
L 37.796875 25.390625 
z
M 35.203125 72.90625 
L 47.609375 72.90625 
L 47.609375 25.390625 
L 58.015625 25.390625 
L 58.015625 17.1875 
L 47.609375 17.1875 
L 47.609375 0 
L 37.796875 0 
L 37.796875 17.1875 
L 4.890625 17.1875 
L 4.890625 26.703125 
z
" id="DejaVuSans-52"/>
       </defs>
       <use xlink:href="#DejaVuSans-49"/>
       <use x="63.623047" xlink:href="#DejaVuSans-52"/>
      </g>
     </g>
    </g>
    <g id="xtick_2">
     <g id="line2d_2">
      <g>
       <use style="stroke:#000000;stroke-width:0.8;" x="160.23235" xlink:href="#m8c04449150" y="307.584"/>
      </g>
     </g>
     <g id="text_2">
      <!-- 15 -->
      <g transform="translate(153.86985 322.182437)scale(0.1 -0.1)">
       <defs>
        <path d="M 10.796875 72.90625 
L 49.515625 72.90625 
L 49.515625 64.59375 
L 19.828125 64.59375 
L 19.828125 46.734375 
Q 21.96875 47.46875 24.109375 47.828125 
Q 26.265625 48.1875 28.421875 48.1875 
Q 40.625 48.1875 47.75 41.5 
Q 54.890625 34.8125 54.890625 23.390625 
Q 54.890625 11.625 47.5625 5.09375 
Q 40.234375 -1.421875 26.90625 -1.421875 
Q 22.3125 -1.421875 17.546875 -0.640625 
Q 12.796875 0.140625 7.71875 1.703125 
L 7.71875 11.625 
Q 12.109375 9.234375 16.796875 8.0625 
Q 21.484375 6.890625 26.703125 6.890625 
Q 35.15625 6.890625 40.078125 11.328125 
Q 45.015625 15.765625 45.015625 23.390625 
Q 45.015625 31 40.078125 35.4375 
Q 35.15625 39.890625 26.703125 39.890625 
Q 22.75 39.890625 18.8125 39.015625 
Q 14.890625 38.140625 10.796875 36.28125 
z
" id="DejaVuSans-53"/>
       </defs>
       <use xlink:href="#DejaVuSans-49"/>
       <use x="63.623047" xlink:href="#DejaVuSans-53"/>
      </g>
     </g>
    </g>
    <g id="xtick_3">
     <g id="line2d_3">
      <g>
       <use style="stroke:#000000;stroke-width:0.8;" x="227.626752" xlink:href="#m8c04449150" y="307.584"/>
      </g>
     </g>
     <g id="text_3">
      <!-- 16 -->
      <g transform="translate(221.264252 322.182437)scale(0.1 -0.1)">
       <defs>
        <path d="M 33.015625 40.375 
Q 26.375 40.375 22.484375 35.828125 
Q 18.609375 31.296875 18.609375 23.390625 
Q 18.609375 15.53125 22.484375 10.953125 
Q 26.375 6.390625 33.015625 6.390625 
Q 39.65625 6.390625 43.53125 10.953125 
Q 47.40625 15.53125 47.40625 23.390625 
Q 47.40625 31.296875 43.53125 35.828125 
Q 39.65625 40.375 33.015625 40.375 
z
M 52.59375 71.296875 
L 52.59375 62.3125 
Q 48.875 64.0625 45.09375 64.984375 
Q 41.3125 65.921875 37.59375 65.921875 
Q 27.828125 65.921875 22.671875 59.328125 
Q 17.53125 52.734375 16.796875 39.40625 
Q 19.671875 43.65625 24.015625 45.921875 
Q 28.375 48.1875 33.59375 48.1875 
Q 44.578125 48.1875 50.953125 41.515625 
Q 57.328125 34.859375 57.328125 23.390625 
Q 57.328125 12.15625 50.6875 5.359375 
Q 44.046875 -1.421875 33.015625 -1.421875 
Q 20.359375 -1.421875 13.671875 8.265625 
Q 6.984375 17.96875 6.984375 36.375 
Q 6.984375 53.65625 15.1875 63.9375 
Q 23.390625 74.21875 37.203125 74.21875 
Q 40.921875 74.21875 44.703125 73.484375 
Q 48.484375 72.75 52.59375 71.296875 
z
" id="DejaVuSans-54"/>
       </defs>
       <use xlink:href="#DejaVuSans-49"/>
       <use x="63.623047" xlink:href="#DejaVuSans-54"/>
      </g>
     </g>
    </g>
    <g id="xtick_4">
     <g id="line2d_4">
      <g>
       <use style="stroke:#000000;stroke-width:0.8;" x="295.021153" xlink:href="#m8c04449150" y="307.584"/>
      </g>
     </g>
     <g id="text_4">
      <!-- 17 -->
      <g transform="translate(288.658653 322.182437)scale(0.1 -0.1)">
       <defs>
        <path d="M 8.203125 72.90625 
L 55.078125 72.90625 
L 55.078125 68.703125 
L 28.609375 0 
L 18.3125 0 
L 43.21875 64.59375 
L 8.203125 64.59375 
z
" id="DejaVuSans-55"/>
       </defs>
       <use xlink:href="#DejaVuSans-49"/>
       <use x="63.623047" xlink:href="#DejaVuSans-55"/>
      </g>
     </g>
    </g>
    <g id="xtick_5">
     <g id="line2d_5">
      <g>
       <use style="stroke:#000000;stroke-width:0.8;" x="362.415555" xlink:href="#m8c04449150" y="307.584"/>
      </g>
     </g>
     <g id="text_5">
      <!-- 18 -->
      <g transform="translate(356.053055 322.182437)scale(0.1 -0.1)">
       <defs>
        <path d="M 31.78125 34.625 
Q 24.75 34.625 20.71875 30.859375 
Q 16.703125 27.09375 16.703125 20.515625 
Q 16.703125 13.921875 20.71875 10.15625 
Q 24.75 6.390625 31.78125 6.390625 
Q 38.8125 6.390625 42.859375 10.171875 
Q 46.921875 13.96875 46.921875 20.515625 
Q 46.921875 27.09375 42.890625 30.859375 
Q 38.875 34.625 31.78125 34.625 
z
M 21.921875 38.8125 
Q 15.578125 40.375 12.03125 44.71875 
Q 8.5 49.078125 8.5 55.328125 
Q 8.5 64.0625 14.71875 69.140625 
Q 20.953125 74.21875 31.78125 74.21875 
Q 42.671875 74.21875 48.875 69.140625 
Q 55.078125 64.0625 55.078125 55.328125 
Q 55.078125 49.078125 51.53125 44.71875 
Q 48 40.375 41.703125 38.8125 
Q 48.828125 37.15625 52.796875 32.3125 
Q 56.78125 27.484375 56.78125 20.515625 
Q 56.78125 9.90625 50.3125 4.234375 
Q 43.84375 -1.421875 31.78125 -1.421875 
Q 19.734375 -1.421875 13.25 4.234375 
Q 6.78125 9.90625 6.78125 20.515625 
Q 6.78125 27.484375 10.78125 32.3125 
Q 14.796875 37.15625 21.921875 38.8125 
z
M 18.3125 54.390625 
Q 18.3125 48.734375 21.84375 45.5625 
Q 25.390625 42.390625 31.78125 42.390625 
Q 38.140625 42.390625 41.71875 45.5625 
Q 45.3125 48.734375 45.3125 54.390625 
Q 45.3125 60.0625 41.71875 63.234375 
Q 38.140625 66.40625 31.78125 66.40625 
Q 25.390625 66.40625 21.84375 63.234375 
Q 18.3125 60.0625 18.3125 54.390625 
z
" id="DejaVuSans-56"/>
       </defs>
       <use xlink:href="#DejaVuSans-49"/>
       <use x="63.623047" xlink:href="#DejaVuSans-56"/>
      </g>
     </g>
    </g>
    <g id="text_6">
     <!-- volume [Å$^3$] -->
     <g transform="translate(206.31 336.882437)scale(0.1 -0.1)">
      <defs>
       <path d="M 2.984375 54.6875 
L 12.5 54.6875 
L 29.59375 8.796875 
L 46.6875 54.6875 
L 56.203125 54.6875 
L 35.6875 0 
L 23.484375 0 
z
" id="DejaVuSans-118"/>
       <path d="M 30.609375 48.390625 
Q 23.390625 48.390625 19.1875 42.75 
Q 14.984375 37.109375 14.984375 27.296875 
Q 14.984375 17.484375 19.15625 11.84375 
Q 23.34375 6.203125 30.609375 6.203125 
Q 37.796875 6.203125 41.984375 11.859375 
Q 46.1875 17.53125 46.1875 27.296875 
Q 46.1875 37.015625 41.984375 42.703125 
Q 37.796875 48.390625 30.609375 48.390625 
z
M 30.609375 56 
Q 42.328125 56 49.015625 48.375 
Q 55.71875 40.765625 55.71875 27.296875 
Q 55.71875 13.875 49.015625 6.21875 
Q 42.328125 -1.421875 30.609375 -1.421875 
Q 18.84375 -1.421875 12.171875 6.21875 
Q 5.515625 13.875 5.515625 27.296875 
Q 5.515625 40.765625 12.171875 48.375 
Q 18.84375 56 30.609375 56 
z
" id="DejaVuSans-111"/>
       <path d="M 9.421875 75.984375 
L 18.40625 75.984375 
L 18.40625 0 
L 9.421875 0 
z
" id="DejaVuSans-108"/>
       <path d="M 8.5 21.578125 
L 8.5 54.6875 
L 17.484375 54.6875 
L 17.484375 21.921875 
Q 17.484375 14.15625 20.5 10.265625 
Q 23.53125 6.390625 29.59375 6.390625 
Q 36.859375 6.390625 41.078125 11.03125 
Q 45.3125 15.671875 45.3125 23.6875 
L 45.3125 54.6875 
L 54.296875 54.6875 
L 54.296875 0 
L 45.3125 0 
L 45.3125 8.40625 
Q 42.046875 3.421875 37.71875 1 
Q 33.40625 -1.421875 27.6875 -1.421875 
Q 18.265625 -1.421875 13.375 4.4375 
Q 8.5 10.296875 8.5 21.578125 
z
M 31.109375 56 
z
" id="DejaVuSans-117"/>
       <path d="M 52 44.1875 
Q 55.375 50.25 60.0625 53.125 
Q 64.75 56 71.09375 56 
Q 79.640625 56 84.28125 50.015625 
Q 88.921875 44.046875 88.921875 33.015625 
L 88.921875 0 
L 79.890625 0 
L 79.890625 32.71875 
Q 79.890625 40.578125 77.09375 44.375 
Q 74.3125 48.1875 68.609375 48.1875 
Q 61.625 48.1875 57.5625 43.546875 
Q 53.515625 38.921875 53.515625 30.90625 
L 53.515625 0 
L 44.484375 0 
L 44.484375 32.71875 
Q 44.484375 40.625 41.703125 44.40625 
Q 38.921875 48.1875 33.109375 48.1875 
Q 26.21875 48.1875 22.15625 43.53125 
Q 18.109375 38.875 18.109375 30.90625 
L 18.109375 0 
L 9.078125 0 
L 9.078125 54.6875 
L 18.109375 54.6875 
L 18.109375 46.1875 
Q 21.1875 51.21875 25.484375 53.609375 
Q 29.78125 56 35.6875 56 
Q 41.65625 56 45.828125 52.96875 
Q 50 49.953125 52 44.1875 
z
" id="DejaVuSans-109"/>
       <path d="M 56.203125 29.59375 
L 56.203125 25.203125 
L 14.890625 25.203125 
Q 15.484375 15.921875 20.484375 11.0625 
Q 25.484375 6.203125 34.421875 6.203125 
Q 39.59375 6.203125 44.453125 7.46875 
Q 49.3125 8.734375 54.109375 11.28125 
L 54.109375 2.78125 
Q 49.265625 0.734375 44.1875 -0.34375 
Q 39.109375 -1.421875 33.890625 -1.421875 
Q 20.796875 -1.421875 13.15625 6.1875 
Q 5.515625 13.8125 5.515625 26.8125 
Q 5.515625 40.234375 12.765625 48.109375 
Q 20.015625 56 32.328125 56 
Q 43.359375 56 49.78125 48.890625 
Q 56.203125 41.796875 56.203125 29.59375 
z
M 47.21875 32.234375 
Q 47.125 39.59375 43.09375 43.984375 
Q 39.0625 48.390625 32.421875 48.390625 
Q 24.90625 48.390625 20.390625 44.140625 
Q 15.875 39.890625 15.1875 32.171875 
z
" id="DejaVuSans-101"/>
       <path id="DejaVuSans-32"/>
       <path d="M 8.59375 75.984375 
L 29.296875 75.984375 
L 29.296875 69 
L 17.578125 69 
L 17.578125 -6.203125 
L 29.296875 -6.203125 
L 29.296875 -13.1875 
L 8.59375 -13.1875 
z
" id="DejaVuSans-91"/>
       <path d="M 41.609375 79.390625 
Q 41.609375 82.46875 39.421875 84.640625 
Q 37.25 86.8125 34.1875 86.8125 
Q 31.0625 86.8125 28.9375 84.6875 
Q 26.8125 82.5625 26.8125 79.390625 
Q 26.8125 76.3125 28.953125 74.15625 
Q 31.109375 72.015625 34.1875 72.015625 
Q 37.25 72.015625 39.421875 74.15625 
Q 41.609375 76.3125 41.609375 79.390625 
z
M 34.1875 63.1875 
L 20.90625 26.90625 
L 47.515625 26.90625 
z
M 26.8125 68.21875 
Q 23.828125 70.21875 22.3125 73.015625 
Q 20.796875 75.828125 20.796875 79.390625 
Q 20.796875 85.015625 24.671875 88.921875 
Q 28.5625 92.828125 34.1875 92.828125 
Q 39.75 92.828125 43.671875 88.890625 
Q 47.609375 84.96875 47.609375 79.390625 
Q 47.609375 75.984375 46.0625 73.09375 
Q 44.53125 70.21875 41.609375 68.21875 
L 67.578125 0 
L 57.328125 0 
L 50.6875 18.703125 
L 17.828125 18.703125 
L 11.1875 0 
L 0.78125 0 
z
" id="DejaVuSans-197"/>
       <path d="M 40.578125 39.3125 
Q 47.65625 37.796875 51.625 33 
Q 55.609375 28.21875 55.609375 21.1875 
Q 55.609375 10.40625 48.1875 4.484375 
Q 40.765625 -1.421875 27.09375 -1.421875 
Q 22.515625 -1.421875 17.65625 -0.515625 
Q 12.796875 0.390625 7.625 2.203125 
L 7.625 11.71875 
Q 11.71875 9.328125 16.59375 8.109375 
Q 21.484375 6.890625 26.8125 6.890625 
Q 36.078125 6.890625 40.9375 10.546875 
Q 45.796875 14.203125 45.796875 21.1875 
Q 45.796875 27.640625 41.28125 31.265625 
Q 36.765625 34.90625 28.71875 34.90625 
L 20.21875 34.90625 
L 20.21875 43.015625 
L 29.109375 43.015625 
Q 36.375 43.015625 40.234375 45.921875 
Q 44.09375 48.828125 44.09375 54.296875 
Q 44.09375 59.90625 40.109375 62.90625 
Q 36.140625 65.921875 28.71875 65.921875 
Q 24.65625 65.921875 20.015625 65.03125 
Q 15.375 64.15625 9.8125 62.3125 
L 9.8125 71.09375 
Q 15.4375 72.65625 20.34375 73.4375 
Q 25.25 74.21875 29.59375 74.21875 
Q 40.828125 74.21875 47.359375 69.109375 
Q 53.90625 64.015625 53.90625 55.328125 
Q 53.90625 49.265625 50.4375 45.09375 
Q 46.96875 40.921875 40.578125 39.3125 
z
" id="DejaVuSans-51"/>
       <path d="M 30.421875 75.984375 
L 30.421875 -13.1875 
L 9.71875 -13.1875 
L 9.71875 -6.203125 
L 21.390625 -6.203125 
L 21.390625 69 
L 9.71875 69 
L 9.71875 75.984375 
z
" id="DejaVuSans-93"/>
      </defs>
      <use transform="translate(0 0.171875)" xlink:href="#DejaVuSans-118"/>
      <use transform="translate(59.179688 0.171875)" xlink:href="#DejaVuSans-111"/>
      <use transform="translate(120.361328 0.171875)" xlink:href="#DejaVuSans-108"/>
      <use transform="translate(148.144531 0.171875)" xlink:href="#DejaVuSans-117"/>
      <use transform="translate(211.523438 0.171875)" xlink:href="#DejaVuSans-109"/>
      <use transform="translate(308.935547 0.171875)" xlink:href="#DejaVuSans-101"/>
      <use transform="translate(370.458984 0.171875)" xlink:href="#DejaVuSans-32"/>
      <use transform="translate(402.246094 0.171875)" xlink:href="#DejaVuSans-91"/>
      <use transform="translate(441.259766 0.171875)" xlink:href="#DejaVuSans-197"/>
      <use transform="translate(510.625 38.453125)scale(0.7)" xlink:href="#DejaVuSans-51"/>
      <use transform="translate(557.895508 0.171875)" xlink:href="#DejaVuSans-93"/>
     </g>
    </g>
   </g>
   <g id="matplotlib.axis_2">
    <g id="ytick_1">
     <g id="line2d_6">
      <defs>
       <path d="M 0 0 
L -3.5 0 
" id="m92950bf550" style="stroke:#000000;stroke-width:0.8;"/>
      </defs>
      <g>
       <use style="stroke:#000000;stroke-width:0.8;" x="57.6" xlink:href="#m92950bf550" y="282.713008"/>
      </g>
     </g>
     <g id="text_7">
      <!-- −3.8 -->
      <g transform="translate(26.317187 286.512227)scale(0.1 -0.1)">
       <defs>
        <path d="M 10.59375 35.5 
L 73.1875 35.5 
L 73.1875 27.203125 
L 10.59375 27.203125 
z
" id="DejaVuSans-8722"/>
        <path d="M 10.6875 12.40625 
L 21 12.40625 
L 21 0 
L 10.6875 0 
z
" id="DejaVuSans-46"/>
       </defs>
       <use xlink:href="#DejaVuSans-8722"/>
       <use x="83.789062" xlink:href="#DejaVuSans-51"/>
       <use x="147.412109" xlink:href="#DejaVuSans-46"/>
       <use x="179.199219" xlink:href="#DejaVuSans-56"/>
      </g>
     </g>
    </g>
    <g id="ytick_2">
     <g id="line2d_7">
      <g>
       <use style="stroke:#000000;stroke-width:0.8;" x="57.6" xlink:href="#m92950bf550" y="237.399501"/>
      </g>
     </g>
     <g id="text_8">
      <!-- −3.7 -->
      <g transform="translate(26.317187 241.198719)scale(0.1 -0.1)">
       <use xlink:href="#DejaVuSans-8722"/>
       <use x="83.789062" xlink:href="#DejaVuSans-51"/>
       <use x="147.412109" xlink:href="#DejaVuSans-46"/>
       <use x="179.199219" xlink:href="#DejaVuSans-55"/>
      </g>
     </g>
    </g>
    <g id="ytick_3">
     <g id="line2d_8">
      <g>
       <use style="stroke:#000000;stroke-width:0.8;" x="57.6" xlink:href="#m92950bf550" y="192.085993"/>
      </g>
     </g>
     <g id="text_9">
      <!-- −3.6 -->
      <g transform="translate(26.317187 195.885212)scale(0.1 -0.1)">
       <use xlink:href="#DejaVuSans-8722"/>
       <use x="83.789062" xlink:href="#DejaVuSans-51"/>
       <use x="147.412109" xlink:href="#DejaVuSans-46"/>
       <use x="179.199219" xlink:href="#DejaVuSans-54"/>
      </g>
     </g>
    </g>
    <g id="ytick_4">
     <g id="line2d_9">
      <g>
       <use style="stroke:#000000;stroke-width:0.8;" x="57.6" xlink:href="#m92950bf550" y="146.772486"/>
      </g>
     </g>
     <g id="text_10">
      <!-- −3.5 -->
      <g transform="translate(26.317187 150.571704)scale(0.1 -0.1)">
       <use xlink:href="#DejaVuSans-8722"/>
       <use x="83.789062" xlink:href="#DejaVuSans-51"/>
       <use x="147.412109" xlink:href="#DejaVuSans-46"/>
       <use x="179.199219" xlink:href="#DejaVuSans-53"/>
      </g>
     </g>
    </g>
    <g id="ytick_5">
     <g id="line2d_10">
      <g>
       <use style="stroke:#000000;stroke-width:0.8;" x="57.6" xlink:href="#m92950bf550" y="101.458978"/>
      </g>
     </g>
     <g id="text_11">
      <!-- −3.4 -->
      <g transform="translate(26.317187 105.258197)scale(0.1 -0.1)">
       <use xlink:href="#DejaVuSans-8722"/>
       <use x="83.789062" xlink:href="#DejaVuSans-51"/>
       <use x="147.412109" xlink:href="#DejaVuSans-46"/>
       <use x="179.199219" xlink:href="#DejaVuSans-52"/>
      </g>
     </g>
    </g>
    <g id="ytick_6">
     <g id="line2d_11">
      <g>
       <use style="stroke:#000000;stroke-width:0.8;" x="57.6" xlink:href="#m92950bf550" y="56.14547"/>
      </g>
     </g>
     <g id="text_12">
      <!-- −3.3 -->
      <g transform="translate(26.317187 59.944689)scale(0.1 -0.1)">
       <use xlink:href="#DejaVuSans-8722"/>
       <use x="83.789062" xlink:href="#DejaVuSans-51"/>
       <use x="147.412109" xlink:href="#DejaVuSans-46"/>
       <use x="179.199219" xlink:href="#DejaVuSans-51"/>
      </g>
     </g>
    </g>
    <g id="text_13">
     <!-- energy [eV] -->
     <g transform="translate(20.2375 203.938938)rotate(-90)scale(0.1 -0.1)">
      <defs>
       <path d="M 54.890625 33.015625 
L 54.890625 0 
L 45.90625 0 
L 45.90625 32.71875 
Q 45.90625 40.484375 42.875 44.328125 
Q 39.84375 48.1875 33.796875 48.1875 
Q 26.515625 48.1875 22.3125 43.546875 
Q 18.109375 38.921875 18.109375 30.90625 
L 18.109375 0 
L 9.078125 0 
L 9.078125 54.6875 
L 18.109375 54.6875 
L 18.109375 46.1875 
Q 21.34375 51.125 25.703125 53.5625 
Q 30.078125 56 35.796875 56 
Q 45.21875 56 50.046875 50.171875 
Q 54.890625 44.34375 54.890625 33.015625 
z
" id="DejaVuSans-110"/>
       <path d="M 41.109375 46.296875 
Q 39.59375 47.171875 37.8125 47.578125 
Q 36.03125 48 33.890625 48 
Q 26.265625 48 22.1875 43.046875 
Q 18.109375 38.09375 18.109375 28.8125 
L 18.109375 0 
L 9.078125 0 
L 9.078125 54.6875 
L 18.109375 54.6875 
L 18.109375 46.1875 
Q 20.953125 51.171875 25.484375 53.578125 
Q 30.03125 56 36.53125 56 
Q 37.453125 56 38.578125 55.875 
Q 39.703125 55.765625 41.0625 55.515625 
z
" id="DejaVuSans-114"/>
       <path d="M 45.40625 27.984375 
Q 45.40625 37.75 41.375 43.109375 
Q 37.359375 48.484375 30.078125 48.484375 
Q 22.859375 48.484375 18.828125 43.109375 
Q 14.796875 37.75 14.796875 27.984375 
Q 14.796875 18.265625 18.828125 12.890625 
Q 22.859375 7.515625 30.078125 7.515625 
Q 37.359375 7.515625 41.375 12.890625 
Q 45.40625 18.265625 45.40625 27.984375 
z
M 54.390625 6.78125 
Q 54.390625 -7.171875 48.1875 -13.984375 
Q 42 -20.796875 29.203125 -20.796875 
Q 24.46875 -20.796875 20.265625 -20.09375 
Q 16.0625 -19.390625 12.109375 -17.921875 
L 12.109375 -9.1875 
Q 16.0625 -11.328125 19.921875 -12.34375 
Q 23.78125 -13.375 27.78125 -13.375 
Q 36.625 -13.375 41.015625 -8.765625 
Q 45.40625 -4.15625 45.40625 5.171875 
L 45.40625 9.625 
Q 42.625 4.78125 38.28125 2.390625 
Q 33.9375 0 27.875 0 
Q 17.828125 0 11.671875 7.65625 
Q 5.515625 15.328125 5.515625 27.984375 
Q 5.515625 40.671875 11.671875 48.328125 
Q 17.828125 56 27.875 56 
Q 33.9375 56 38.28125 53.609375 
Q 42.625 51.21875 45.40625 46.390625 
L 45.40625 54.6875 
L 54.390625 54.6875 
z
" id="DejaVuSans-103"/>
       <path d="M 32.171875 -5.078125 
Q 28.375 -14.84375 24.75 -17.8125 
Q 21.140625 -20.796875 15.09375 -20.796875 
L 7.90625 -20.796875 
L 7.90625 -13.28125 
L 13.1875 -13.28125 
Q 16.890625 -13.28125 18.9375 -11.515625 
Q 21 -9.765625 23.484375 -3.21875 
L 25.09375 0.875 
L 2.984375 54.6875 
L 12.5 54.6875 
L 29.59375 11.921875 
L 46.6875 54.6875 
L 56.203125 54.6875 
z
" id="DejaVuSans-121"/>
       <path d="M 28.609375 0 
L 0.78125 72.90625 
L 11.078125 72.90625 
L 34.1875 11.53125 
L 57.328125 72.90625 
L 67.578125 72.90625 
L 39.796875 0 
z
" id="DejaVuSans-86"/>
      </defs>
      <use xlink:href="#DejaVuSans-101"/>
      <use x="61.523438" xlink:href="#DejaVuSans-110"/>
      <use x="124.902344" xlink:href="#DejaVuSans-101"/>
      <use x="186.425781" xlink:href="#DejaVuSans-114"/>
      <use x="225.789062" xlink:href="#DejaVuSans-103"/>
      <use x="289.265625" xlink:href="#DejaVuSans-121"/>
      <use x="348.445312" xlink:href="#DejaVuSans-32"/>
      <use x="380.232422" xlink:href="#DejaVuSans-91"/>
      <use x="419.246094" xlink:href="#DejaVuSans-101"/>
      <use x="480.769531" xlink:href="#DejaVuSans-86"/>
      <use x="549.177734" xlink:href="#DejaVuSans-93"/>
     </g>
    </g>
   </g>
   <g id="line2d_12">
    <path clip-path="url(#pd27d46132e)" d="M 73.832727 53.747045 
L 77.112066 63.089701 
L 80.391405 72.17961 
L 83.670744 81.021562 
L 86.950083 89.620255 
L 90.229421 97.980297 
L 93.50876 106.106209 
L 96.788099 114.002427 
L 100.067438 121.673301 
L 103.346777 129.1231 
L 106.626116 136.35601 
L 109.905455 143.376142 
L 113.184793 150.187526 
L 116.464132 156.794119 
L 119.743471 163.199801 
L 123.02281 169.408383 
L 126.302149 175.423602 
L 129.581488 181.249126 
L 132.860826 186.888556 
L 136.140165 192.345426 
L 139.419504 197.623202 
L 142.698843 202.72529 
L 145.978182 207.65503 
L 149.257521 212.415702 
L 152.53686 217.010526 
L 155.816198 221.442661 
L 159.095537 225.715209 
L 162.374876 229.831218 
L 165.654215 233.793677 
L 168.933554 237.605521 
L 172.212893 241.269633 
L 175.492231 244.788844 
L 178.77157 248.165931 
L 182.050909 251.403624 
L 185.330248 254.504601 
L 188.609587 257.471494 
L 191.888926 260.306887 
L 195.168264 263.013316 
L 198.447603 265.593273 
L 201.726942 268.049205 
L 205.006281 270.383516 
L 208.28562 272.598566 
L 211.564959 274.696673 
L 214.844298 276.680115 
L 218.123636 278.551128 
L 221.402975 280.31191 
L 224.682314 281.964617 
L 227.961653 283.511371 
L 231.240992 284.954253 
L 234.520331 286.295309 
L 237.799669 287.53655 
L 241.079008 288.679948 
L 244.358347 289.727444 
L 247.637686 290.680943 
L 250.917025 291.542318 
L 254.196364 292.313408 
L 257.475702 292.996021 
L 260.755041 293.591931 
L 264.03438 294.102885 
L 267.313719 294.530596 
L 270.593058 294.876749 
L 273.872397 295.143 
L 277.151736 295.330975 
L 280.431074 295.442273 
L 283.710413 295.478464 
L 286.989752 295.441093 
L 290.269091 295.331676 
L 293.54843 295.151704 
L 296.827769 294.902643 
L 300.107107 294.585933 
L 303.386446 294.202988 
L 306.665785 293.755201 
L 309.945124 293.243937 
L 313.224463 292.670541 
L 316.503802 292.036333 
L 319.78314 291.342611 
L 323.062479 290.590652 
L 326.341818 289.781709 
L 329.621157 288.917015 
L 332.900496 287.997783 
L 336.179835 287.025202 
L 339.459174 286.000444 
L 342.738512 284.92466 
L 346.017851 283.798981 
L 349.29719 282.624519 
L 352.576529 281.402368 
L 355.855868 280.133603 
L 359.135207 278.819279 
L 362.414545 277.460437 
L 365.693884 276.058096 
L 368.973223 274.613262 
L 372.252562 273.12692 
L 375.531901 271.600041 
L 378.81124 270.03358 
L 382.090579 268.428474 
L 385.369917 266.785644 
L 388.649256 265.105998 
L 391.928595 263.390428 
L 395.207934 261.639808 
L 398.487273 259.855001 
" style="fill:none;stroke:#d62728;stroke-linecap:square;stroke-width:1.5;"/>
   </g>
   <g id="line2d_13">
    <defs>
     <path d="M 0 3 
C 0.795609 3 1.55874 2.683901 2.12132 2.12132 
C 2.683901 1.55874 3 0.795609 3 0 
C 3 -0.795609 2.683901 -1.55874 2.12132 -2.12132 
C 1.55874 -2.683901 0.795609 -3 0 -3 
C -0.795609 -3 -1.55874 -2.683901 -2.12132 -2.12132 
C -2.683901 -1.55874 -3 -0.795609 -3 0 
C -3 0.795609 -2.683901 1.55874 -2.12132 2.12132 
C -1.55874 2.683901 -0.795609 3 0 3 
z
" id="mbd50fb3143" style="stroke:#1f77b4;"/>
    </defs>
    <g clip-path="url(#pd27d46132e)">
     <use style="fill:#1f77b4;stroke:#1f77b4;" x="73.832727" xlink:href="#mbd50fb3143" y="53.568"/>
     <use style="fill:#1f77b4;stroke:#1f77b4;" x="74.562801" xlink:href="#mbd50fb3143" y="55.67973"/>
     <use style="fill:#1f77b4;stroke:#1f77b4;" x="75.293258" xlink:href="#mbd50fb3143" y="57.779601"/>
     <use style="fill:#1f77b4;stroke:#1f77b4;" x="76.024101" xlink:href="#mbd50fb3143" y="59.867649"/>
     <use style="fill:#1f77b4;stroke:#1f77b4;" x="76.755327" xlink:href="#mbd50fb3143" y="61.943914"/>
     <use style="fill:#1f77b4;stroke:#1f77b4;" x="77.486938" xlink:href="#mbd50fb3143" y="64.008432"/>
     <use style="fill:#1f77b4;stroke:#1f77b4;" x="78.218934" xlink:href="#mbd50fb3143" y="66.061241"/>
     <use style="fill:#1f77b4;stroke:#1f77b4;" x="78.951314" xlink:href="#mbd50fb3143" y="68.102378"/>
     <use style="fill:#1f77b4;stroke:#1f77b4;" x="79.68408" xlink:href="#mbd50fb3143" y="70.13188"/>
     <use style="fill:#1f77b4;stroke:#1f77b4;" x="80.41723" xlink:href="#mbd50fb3143" y="72.149785"/>
     <use style="fill:#1f77b4;stroke:#1f77b4;" x="81.150765" xlink:href="#mbd50fb3143" y="74.156129"/>
     <use style="fill:#1f77b4;stroke:#1f77b4;" x="81.884686" xlink:href="#mbd50fb3143" y="76.15095"/>
     <use style="fill:#1f77b4;stroke:#1f77b4;" x="82.618991" xlink:href="#mbd50fb3143" y="78.134284"/>
     <use style="fill:#1f77b4;stroke:#1f77b4;" x="83.353683" xlink:href="#mbd50fb3143" y="80.106168"/>
     <use style="fill:#1f77b4;stroke:#1f77b4;" x="84.088759" xlink:href="#mbd50fb3143" y="82.066639"/>
     <use style="fill:#1f77b4;stroke:#1f77b4;" x="84.824221" xlink:href="#mbd50fb3143" y="84.015733"/>
     <use style="fill:#1f77b4;stroke:#1f77b4;" x="85.560069" xlink:href="#mbd50fb3143" y="85.953486"/>
     <use style="fill:#1f77b4;stroke:#1f77b4;" x="86.296303" xlink:href="#mbd50fb3143" y="87.879935"/>
     <use style="fill:#1f77b4;stroke:#1f77b4;" x="87.032922" xlink:href="#mbd50fb3143" y="89.795116"/>
     <use style="fill:#1f77b4;stroke:#1f77b4;" x="87.769928" xlink:href="#mbd50fb3143" y="91.699065"/>
     <use style="fill:#1f77b4;stroke:#1f77b4;" x="88.507319" xlink:href="#mbd50fb3143" y="93.591818"/>
     <use style="fill:#1f77b4;stroke:#1f77b4;" x="89.245097" xlink:href="#mbd50fb3143" y="95.473411"/>
     <use style="fill:#1f77b4;stroke:#1f77b4;" x="89.983261" xlink:href="#mbd50fb3143" y="97.34388"/>
     <use style="fill:#1f77b4;stroke:#1f77b4;" x="90.721811" xlink:href="#mbd50fb3143" y="99.20326"/>
     <use style="fill:#1f77b4;stroke:#1f77b4;" x="91.460748" xlink:href="#mbd50fb3143" y="101.051587"/>
     <use style="fill:#1f77b4;stroke:#1f77b4;" x="92.200071" xlink:href="#mbd50fb3143" y="102.888897"/>
     <use style="fill:#1f77b4;stroke:#1f77b4;" x="92.939781" xlink:href="#mbd50fb3143" y="104.715224"/>
     <use style="fill:#1f77b4;stroke:#1f77b4;" x="93.679878" xlink:href="#mbd50fb3143" y="106.530605"/>
     <use style="fill:#1f77b4;stroke:#1f77b4;" x="94.420362" xlink:href="#mbd50fb3143" y="108.335074"/>
     <use style="fill:#1f77b4;stroke:#1f77b4;" x="95.161232" xlink:href="#mbd50fb3143" y="110.128667"/>
     <use style="fill:#1f77b4;stroke:#1f77b4;" x="95.90249" xlink:href="#mbd50fb3143" y="111.911417"/>
     <use style="fill:#1f77b4;stroke:#1f77b4;" x="96.644135" xlink:href="#mbd50fb3143" y="113.683362"/>
     <use style="fill:#1f77b4;stroke:#1f77b4;" x="97.386167" xlink:href="#mbd50fb3143" y="115.444534"/>
     <use style="fill:#1f77b4;stroke:#1f77b4;" x="98.128587" xlink:href="#mbd50fb3143" y="117.194969"/>
     <use style="fill:#1f77b4;stroke:#1f77b4;" x="98.871394" xlink:href="#mbd50fb3143" y="118.934701"/>
     <use style="fill:#1f77b4;stroke:#1f77b4;" x="99.614588" xlink:href="#mbd50fb3143" y="120.663765"/>
     <use style="fill:#1f77b4;stroke:#1f77b4;" x="100.358171" xlink:href="#mbd50fb3143" y="122.382196"/>
     <use style="fill:#1f77b4;stroke:#1f77b4;" x="101.102141" xlink:href="#mbd50fb3143" y="124.090027"/>
     <use style="fill:#1f77b4;stroke:#1f77b4;" x="101.846499" xlink:href="#mbd50fb3143" y="125.787292"/>
     <use style="fill:#1f77b4;stroke:#1f77b4;" x="102.591245" xlink:href="#mbd50fb3143" y="127.474027"/>
     <use style="fill:#1f77b4;stroke:#1f77b4;" x="103.336379" xlink:href="#mbd50fb3143" y="129.150265"/>
     <use style="fill:#1f77b4;stroke:#1f77b4;" x="104.081901" xlink:href="#mbd50fb3143" y="130.816039"/>
     <use style="fill:#1f77b4;stroke:#1f77b4;" x="104.827812" xlink:href="#mbd50fb3143" y="132.471384"/>
     <use style="fill:#1f77b4;stroke:#1f77b4;" x="105.574111" xlink:href="#mbd50fb3143" y="134.116333"/>
     <use style="fill:#1f77b4;stroke:#1f77b4;" x="106.320798" xlink:href="#mbd50fb3143" y="135.75092"/>
     <use style="fill:#1f77b4;stroke:#1f77b4;" x="107.067874" xlink:href="#mbd50fb3143" y="137.375179"/>
     <use style="fill:#1f77b4;stroke:#1f77b4;" x="107.815339" xlink:href="#mbd50fb3143" y="138.989142"/>
     <use style="fill:#1f77b4;stroke:#1f77b4;" x="108.563192" xlink:href="#mbd50fb3143" y="140.592844"/>
     <use style="fill:#1f77b4;stroke:#1f77b4;" x="109.311435" xlink:href="#mbd50fb3143" y="142.186317"/>
     <use style="fill:#1f77b4;stroke:#1f77b4;" x="110.060066" xlink:href="#mbd50fb3143" y="143.769595"/>
     <use style="fill:#1f77b4;stroke:#1f77b4;" x="110.809087" xlink:href="#mbd50fb3143" y="145.342711"/>
     <use style="fill:#1f77b4;stroke:#1f77b4;" x="111.558497" xlink:href="#mbd50fb3143" y="146.905697"/>
     <use style="fill:#1f77b4;stroke:#1f77b4;" x="112.308296" xlink:href="#mbd50fb3143" y="148.458587"/>
     <use style="fill:#1f77b4;stroke:#1f77b4;" x="113.058484" xlink:href="#mbd50fb3143" y="150.001413"/>
     <use style="fill:#1f77b4;stroke:#1f77b4;" x="113.809062" xlink:href="#mbd50fb3143" y="151.534208"/>
     <use style="fill:#1f77b4;stroke:#1f77b4;" x="114.56003" xlink:href="#mbd50fb3143" y="153.057005"/>
     <use style="fill:#1f77b4;stroke:#1f77b4;" x="115.311387" xlink:href="#mbd50fb3143" y="154.569836"/>
     <use style="fill:#1f77b4;stroke:#1f77b4;" x="116.063134" xlink:href="#mbd50fb3143" y="156.072734"/>
     <use style="fill:#1f77b4;stroke:#1f77b4;" x="116.815271" xlink:href="#mbd50fb3143" y="157.56573"/>
     <use style="fill:#1f77b4;stroke:#1f77b4;" x="117.567798" xlink:href="#mbd50fb3143" y="159.048857"/>
     <use style="fill:#1f77b4;stroke:#1f77b4;" x="118.320715" xlink:href="#mbd50fb3143" y="160.522148"/>
     <use style="fill:#1f77b4;stroke:#1f77b4;" x="119.074023" xlink:href="#mbd50fb3143" y="161.985634"/>
     <use style="fill:#1f77b4;stroke:#1f77b4;" x="119.82772" xlink:href="#mbd50fb3143" y="163.439347"/>
     <use style="fill:#1f77b4;stroke:#1f77b4;" x="120.581808" xlink:href="#mbd50fb3143" y="164.883319"/>
     <use style="fill:#1f77b4;stroke:#1f77b4;" x="121.336287" xlink:href="#mbd50fb3143" y="166.317582"/>
     <use style="fill:#1f77b4;stroke:#1f77b4;" x="122.091156" xlink:href="#mbd50fb3143" y="167.742167"/>
     <use style="fill:#1f77b4;stroke:#1f77b4;" x="122.846416" xlink:href="#mbd50fb3143" y="169.157106"/>
     <use style="fill:#1f77b4;stroke:#1f77b4;" x="123.602067" xlink:href="#mbd50fb3143" y="170.562431"/>
     <use style="fill:#1f77b4;stroke:#1f77b4;" x="124.358108" xlink:href="#mbd50fb3143" y="171.958173"/>
     <use style="fill:#1f77b4;stroke:#1f77b4;" x="125.114541" xlink:href="#mbd50fb3143" y="173.344364"/>
     <use style="fill:#1f77b4;stroke:#1f77b4;" x="125.871365" xlink:href="#mbd50fb3143" y="174.721034"/>
     <use style="fill:#1f77b4;stroke:#1f77b4;" x="126.62858" xlink:href="#mbd50fb3143" y="176.088214"/>
     <use style="fill:#1f77b4;stroke:#1f77b4;" x="127.386186" xlink:href="#mbd50fb3143" y="177.445937"/>
     <use style="fill:#1f77b4;stroke:#1f77b4;" x="128.144184" xlink:href="#mbd50fb3143" y="178.794232"/>
     <use style="fill:#1f77b4;stroke:#1f77b4;" x="128.902574" xlink:href="#mbd50fb3143" y="180.133131"/>
     <use style="fill:#1f77b4;stroke:#1f77b4;" x="129.661354" xlink:href="#mbd50fb3143" y="181.462664"/>
     <use style="fill:#1f77b4;stroke:#1f77b4;" x="130.420527" xlink:href="#mbd50fb3143" y="182.782862"/>
     <use style="fill:#1f77b4;stroke:#1f77b4;" x="131.180092" xlink:href="#mbd50fb3143" y="184.093756"/>
     <use style="fill:#1f77b4;stroke:#1f77b4;" x="131.940048" xlink:href="#mbd50fb3143" y="185.395377"/>
     <use style="fill:#1f77b4;stroke:#1f77b4;" x="132.700397" xlink:href="#mbd50fb3143" y="186.687754"/>
     <use style="fill:#1f77b4;stroke:#1f77b4;" x="133.461137" xlink:href="#mbd50fb3143" y="187.970918"/>
     <use style="fill:#1f77b4;stroke:#1f77b4;" x="134.22227" xlink:href="#mbd50fb3143" y="189.244899"/>
     <use style="fill:#1f77b4;stroke:#1f77b4;" x="134.983795" xlink:href="#mbd50fb3143" y="190.509728"/>
     <use style="fill:#1f77b4;stroke:#1f77b4;" x="135.745713" xlink:href="#mbd50fb3143" y="191.765435"/>
     <use style="fill:#1f77b4;stroke:#1f77b4;" x="136.508023" xlink:href="#mbd50fb3143" y="193.012049"/>
     <use style="fill:#1f77b4;stroke:#1f77b4;" x="137.270726" xlink:href="#mbd50fb3143" y="194.249601"/>
     <use style="fill:#1f77b4;stroke:#1f77b4;" x="138.033821" xlink:href="#mbd50fb3143" y="195.47812"/>
     <use style="fill:#1f77b4;stroke:#1f77b4;" x="138.79731" xlink:href="#mbd50fb3143" y="196.697636"/>
     <use style="fill:#1f77b4;stroke:#1f77b4;" x="139.561191" xlink:href="#mbd50fb3143" y="197.90818"/>
     <use style="fill:#1f77b4;stroke:#1f77b4;" x="140.325465" xlink:href="#mbd50fb3143" y="199.109779"/>
     <use style="fill:#1f77b4;stroke:#1f77b4;" x="141.090133" xlink:href="#mbd50fb3143" y="200.302465"/>
     <use style="fill:#1f77b4;stroke:#1f77b4;" x="141.855194" xlink:href="#mbd50fb3143" y="201.486266"/>
     <use style="fill:#1f77b4;stroke:#1f77b4;" x="142.620648" xlink:href="#mbd50fb3143" y="202.661212"/>
     <use style="fill:#1f77b4;stroke:#1f77b4;" x="143.386495" xlink:href="#mbd50fb3143" y="203.827331"/>
     <use style="fill:#1f77b4;stroke:#1f77b4;" x="144.152736" xlink:href="#mbd50fb3143" y="204.984654"/>
     <use style="fill:#1f77b4;stroke:#1f77b4;" x="144.919371" xlink:href="#mbd50fb3143" y="206.133209"/>
     <use style="fill:#1f77b4;stroke:#1f77b4;" x="145.6864" xlink:href="#mbd50fb3143" y="207.273025"/>
     <use style="fill:#1f77b4;stroke:#1f77b4;" x="146.453822" xlink:href="#mbd50fb3143" y="208.404132"/>
     <use style="fill:#1f77b4;stroke:#1f77b4;" x="147.221638" xlink:href="#mbd50fb3143" y="209.526557"/>
     <use style="fill:#1f77b4;stroke:#1f77b4;" x="147.989849" xlink:href="#mbd50fb3143" y="210.64033"/>
     <use style="fill:#1f77b4;stroke:#1f77b4;" x="148.758453" xlink:href="#mbd50fb3143" y="211.74548"/>
     <use style="fill:#1f77b4;stroke:#1f77b4;" x="149.527452" xlink:href="#mbd50fb3143" y="212.842035"/>
     <use style="fill:#1f77b4;stroke:#1f77b4;" x="150.296845" xlink:href="#mbd50fb3143" y="213.930023"/>
     <use style="fill:#1f77b4;stroke:#1f77b4;" x="151.066633" xlink:href="#mbd50fb3143" y="215.009473"/>
     <use style="fill:#1f77b4;stroke:#1f77b4;" x="151.836815" xlink:href="#mbd50fb3143" y="216.080413"/>
     <use style="fill:#1f77b4;stroke:#1f77b4;" x="152.607392" xlink:href="#mbd50fb3143" y="217.142872"/>
     <use style="fill:#1f77b4;stroke:#1f77b4;" x="153.378363" xlink:href="#mbd50fb3143" y="218.196878"/>
     <use style="fill:#1f77b4;stroke:#1f77b4;" x="154.14973" xlink:href="#mbd50fb3143" y="219.242459"/>
     <use style="fill:#1f77b4;stroke:#1f77b4;" x="154.921491" xlink:href="#mbd50fb3143" y="220.279643"/>
     <use style="fill:#1f77b4;stroke:#1f77b4;" x="155.693648" xlink:href="#mbd50fb3143" y="221.308457"/>
     <use style="fill:#1f77b4;stroke:#1f77b4;" x="156.466199" xlink:href="#mbd50fb3143" y="222.328931"/>
     <use style="fill:#1f77b4;stroke:#1f77b4;" x="157.239146" xlink:href="#mbd50fb3143" y="223.34109"/>
     <use style="fill:#1f77b4;stroke:#1f77b4;" x="158.012489" xlink:href="#mbd50fb3143" y="224.344965"/>
     <use style="fill:#1f77b4;stroke:#1f77b4;" x="158.786226" xlink:href="#mbd50fb3143" y="225.34058"/>
     <use style="fill:#1f77b4;stroke:#1f77b4;" x="159.56036" xlink:href="#mbd50fb3143" y="226.327966"/>
     <use style="fill:#1f77b4;stroke:#1f77b4;" x="160.334889" xlink:href="#mbd50fb3143" y="227.307148"/>
     <use style="fill:#1f77b4;stroke:#1f77b4;" x="161.109813" xlink:href="#mbd50fb3143" y="228.278155"/>
     <use style="fill:#1f77b4;stroke:#1f77b4;" x="161.885134" xlink:href="#mbd50fb3143" y="229.241013"/>
     <use style="fill:#1f77b4;stroke:#1f77b4;" x="162.660851" xlink:href="#mbd50fb3143" y="230.19575"/>
     <use style="fill:#1f77b4;stroke:#1f77b4;" x="163.436963" xlink:href="#mbd50fb3143" y="231.142393"/>
     <use style="fill:#1f77b4;stroke:#1f77b4;" x="164.213472" xlink:href="#mbd50fb3143" y="232.080969"/>
     <use style="fill:#1f77b4;stroke:#1f77b4;" x="164.990377" xlink:href="#mbd50fb3143" y="233.011506"/>
     <use style="fill:#1f77b4;stroke:#1f77b4;" x="165.767679" xlink:href="#mbd50fb3143" y="233.934029"/>
     <use style="fill:#1f77b4;stroke:#1f77b4;" x="166.545377" xlink:href="#mbd50fb3143" y="234.848566"/>
     <use style="fill:#1f77b4;stroke:#1f77b4;" x="167.323472" xlink:href="#mbd50fb3143" y="235.755144"/>
     <use style="fill:#1f77b4;stroke:#1f77b4;" x="168.101963" xlink:href="#mbd50fb3143" y="236.65379"/>
     <use style="fill:#1f77b4;stroke:#1f77b4;" x="168.880851" xlink:href="#mbd50fb3143" y="237.544529"/>
     <use style="fill:#1f77b4;stroke:#1f77b4;" x="169.660136" xlink:href="#mbd50fb3143" y="238.427389"/>
     <use style="fill:#1f77b4;stroke:#1f77b4;" x="170.439818" xlink:href="#mbd50fb3143" y="239.302396"/>
     <use style="fill:#1f77b4;stroke:#1f77b4;" x="171.219897" xlink:href="#mbd50fb3143" y="240.169576"/>
     <use style="fill:#1f77b4;stroke:#1f77b4;" x="172.000373" xlink:href="#mbd50fb3143" y="241.028956"/>
     <use style="fill:#1f77b4;stroke:#1f77b4;" x="172.781247" xlink:href="#mbd50fb3143" y="241.880563"/>
     <use style="fill:#1f77b4;stroke:#1f77b4;" x="173.562517" xlink:href="#mbd50fb3143" y="242.724421"/>
     <use style="fill:#1f77b4;stroke:#1f77b4;" x="174.344186" xlink:href="#mbd50fb3143" y="243.560557"/>
     <use style="fill:#1f77b4;stroke:#1f77b4;" x="175.126252" xlink:href="#mbd50fb3143" y="244.388998"/>
     <use style="fill:#1f77b4;stroke:#1f77b4;" x="175.908715" xlink:href="#mbd50fb3143" y="245.209769"/>
     <use style="fill:#1f77b4;stroke:#1f77b4;" x="176.691577" xlink:href="#mbd50fb3143" y="246.022896"/>
     <use style="fill:#1f77b4;stroke:#1f77b4;" x="177.474836" xlink:href="#mbd50fb3143" y="246.828405"/>
     <use style="fill:#1f77b4;stroke:#1f77b4;" x="178.258494" xlink:href="#mbd50fb3143" y="247.626322"/>
     <use style="fill:#1f77b4;stroke:#1f77b4;" x="179.042549" xlink:href="#mbd50fb3143" y="248.416671"/>
     <use style="fill:#1f77b4;stroke:#1f77b4;" x="179.827003" xlink:href="#mbd50fb3143" y="249.19948"/>
     <use style="fill:#1f77b4;stroke:#1f77b4;" x="180.611855" xlink:href="#mbd50fb3143" y="249.974773"/>
     <use style="fill:#1f77b4;stroke:#1f77b4;" x="181.397105" xlink:href="#mbd50fb3143" y="250.742576"/>
     <use style="fill:#1f77b4;stroke:#1f77b4;" x="182.182754" xlink:href="#mbd50fb3143" y="251.502914"/>
     <use style="fill:#1f77b4;stroke:#1f77b4;" x="182.968801" xlink:href="#mbd50fb3143" y="252.255812"/>
     <use style="fill:#1f77b4;stroke:#1f77b4;" x="183.755248" xlink:href="#mbd50fb3143" y="253.001296"/>
     <use style="fill:#1f77b4;stroke:#1f77b4;" x="184.542093" xlink:href="#mbd50fb3143" y="253.739391"/>
     <use style="fill:#1f77b4;stroke:#1f77b4;" x="185.329337" xlink:href="#mbd50fb3143" y="254.470122"/>
     <use style="fill:#1f77b4;stroke:#1f77b4;" x="186.116979" xlink:href="#mbd50fb3143" y="255.193513"/>
     <use style="fill:#1f77b4;stroke:#1f77b4;" x="186.905021" xlink:href="#mbd50fb3143" y="255.909591"/>
     <use style="fill:#1f77b4;stroke:#1f77b4;" x="187.693463" xlink:href="#mbd50fb3143" y="256.618378"/>
     <use style="fill:#1f77b4;stroke:#1f77b4;" x="188.482303" xlink:href="#mbd50fb3143" y="257.319902"/>
     <use style="fill:#1f77b4;stroke:#1f77b4;" x="189.271543" xlink:href="#mbd50fb3143" y="258.014185"/>
     <use style="fill:#1f77b4;stroke:#1f77b4;" x="190.061183" xlink:href="#mbd50fb3143" y="258.701253"/>
     <use style="fill:#1f77b4;stroke:#1f77b4;" x="190.851222" xlink:href="#mbd50fb3143" y="259.381131"/>
     <use style="fill:#1f77b4;stroke:#1f77b4;" x="191.641661" xlink:href="#mbd50fb3143" y="260.053842"/>
     <use style="fill:#1f77b4;stroke:#1f77b4;" x="192.432499" xlink:href="#mbd50fb3143" y="260.719412"/>
     <use style="fill:#1f77b4;stroke:#1f77b4;" x="193.223738" xlink:href="#mbd50fb3143" y="261.377864"/>
     <use style="fill:#1f77b4;stroke:#1f77b4;" x="194.015376" xlink:href="#mbd50fb3143" y="262.029223"/>
     <use style="fill:#1f77b4;stroke:#1f77b4;" x="194.807415" xlink:href="#mbd50fb3143" y="262.673513"/>
     <use style="fill:#1f77b4;stroke:#1f77b4;" x="195.599854" xlink:href="#mbd50fb3143" y="263.310759"/>
     <use style="fill:#1f77b4;stroke:#1f77b4;" x="196.392693" xlink:href="#mbd50fb3143" y="263.940984"/>
     <use style="fill:#1f77b4;stroke:#1f77b4;" x="197.185933" xlink:href="#mbd50fb3143" y="264.564212"/>
     <use style="fill:#1f77b4;stroke:#1f77b4;" x="197.979573" xlink:href="#mbd50fb3143" y="265.180468"/>
     <use style="fill:#1f77b4;stroke:#1f77b4;" x="198.773614" xlink:href="#mbd50fb3143" y="265.789774"/>
     <use style="fill:#1f77b4;stroke:#1f77b4;" x="199.568055" xlink:href="#mbd50fb3143" y="266.392156"/>
     <use style="fill:#1f77b4;stroke:#1f77b4;" x="200.362897" xlink:href="#mbd50fb3143" y="266.987636"/>
     <use style="fill:#1f77b4;stroke:#1f77b4;" x="201.158141" xlink:href="#mbd50fb3143" y="267.576239"/>
     <use style="fill:#1f77b4;stroke:#1f77b4;" x="201.953785" xlink:href="#mbd50fb3143" y="268.157988"/>
     <use style="fill:#1f77b4;stroke:#1f77b4;" x="202.74983" xlink:href="#mbd50fb3143" y="268.732907"/>
     <use style="fill:#1f77b4;stroke:#1f77b4;" x="203.546277" xlink:href="#mbd50fb3143" y="269.301018"/>
     <use style="fill:#1f77b4;stroke:#1f77b4;" x="204.343125" xlink:href="#mbd50fb3143" y="269.862346"/>
     <use style="fill:#1f77b4;stroke:#1f77b4;" x="205.140375" xlink:href="#mbd50fb3143" y="270.416913"/>
     <use style="fill:#1f77b4;stroke:#1f77b4;" x="205.938025" xlink:href="#mbd50fb3143" y="270.964744"/>
     <use style="fill:#1f77b4;stroke:#1f77b4;" x="206.736078" xlink:href="#mbd50fb3143" y="271.50586"/>
     <use style="fill:#1f77b4;stroke:#1f77b4;" x="207.534532" xlink:href="#mbd50fb3143" y="272.040286"/>
     <use style="fill:#1f77b4;stroke:#1f77b4;" x="208.333389" xlink:href="#mbd50fb3143" y="272.568045"/>
     <use style="fill:#1f77b4;stroke:#1f77b4;" x="209.132647" xlink:href="#mbd50fb3143" y="273.089159"/>
     <use style="fill:#1f77b4;stroke:#1f77b4;" x="209.932307" xlink:href="#mbd50fb3143" y="273.603651"/>
     <use style="fill:#1f77b4;stroke:#1f77b4;" x="210.732369" xlink:href="#mbd50fb3143" y="274.111544"/>
     <use style="fill:#1f77b4;stroke:#1f77b4;" x="211.532834" xlink:href="#mbd50fb3143" y="274.612861"/>
     <use style="fill:#1f77b4;stroke:#1f77b4;" x="212.333701" xlink:href="#mbd50fb3143" y="275.107625"/>
     <use style="fill:#1f77b4;stroke:#1f77b4;" x="213.13497" xlink:href="#mbd50fb3143" y="275.595858"/>
     <use style="fill:#1f77b4;stroke:#1f77b4;" x="213.936642" xlink:href="#mbd50fb3143" y="276.077583"/>
     <use style="fill:#1f77b4;stroke:#1f77b4;" x="214.738716" xlink:href="#mbd50fb3143" y="276.552823"/>
     <use style="fill:#1f77b4;stroke:#1f77b4;" x="215.541194" xlink:href="#mbd50fb3143" y="277.0216"/>
     <use style="fill:#1f77b4;stroke:#1f77b4;" x="216.344074" xlink:href="#mbd50fb3143" y="277.483936"/>
     <use style="fill:#1f77b4;stroke:#1f77b4;" x="217.147357" xlink:href="#mbd50fb3143" y="277.939854"/>
     <use style="fill:#1f77b4;stroke:#1f77b4;" x="217.951043" xlink:href="#mbd50fb3143" y="278.389376"/>
     <use style="fill:#1f77b4;stroke:#1f77b4;" x="218.755132" xlink:href="#mbd50fb3143" y="278.832524"/>
     <use style="fill:#1f77b4;stroke:#1f77b4;" x="219.559625" xlink:href="#mbd50fb3143" y="279.26932"/>
     <use style="fill:#1f77b4;stroke:#1f77b4;" x="220.364521" xlink:href="#mbd50fb3143" y="279.699787"/>
     <use style="fill:#1f77b4;stroke:#1f77b4;" x="221.16982" xlink:href="#mbd50fb3143" y="280.123947"/>
     <use style="fill:#1f77b4;stroke:#1f77b4;" x="221.975523" xlink:href="#mbd50fb3143" y="280.54182"/>
     <use style="fill:#1f77b4;stroke:#1f77b4;" x="222.78163" xlink:href="#mbd50fb3143" y="280.953431"/>
     <use style="fill:#1f77b4;stroke:#1f77b4;" x="223.58814" xlink:href="#mbd50fb3143" y="281.358799"/>
     <use style="fill:#1f77b4;stroke:#1f77b4;" x="224.395054" xlink:href="#mbd50fb3143" y="281.757947"/>
     <use style="fill:#1f77b4;stroke:#1f77b4;" x="225.202372" xlink:href="#mbd50fb3143" y="282.150897"/>
     <use style="fill:#1f77b4;stroke:#1f77b4;" x="226.010095" xlink:href="#mbd50fb3143" y="282.53767"/>
     <use style="fill:#1f77b4;stroke:#1f77b4;" x="226.818221" xlink:href="#mbd50fb3143" y="282.918288"/>
     <use style="fill:#1f77b4;stroke:#1f77b4;" x="227.626752" xlink:href="#mbd50fb3143" y="283.292773"/>
     <use style="fill:#1f77b4;stroke:#1f77b4;" x="228.435687" xlink:href="#mbd50fb3143" y="283.661145"/>
     <use style="fill:#1f77b4;stroke:#1f77b4;" x="229.245026" xlink:href="#mbd50fb3143" y="284.023427"/>
     <use style="fill:#1f77b4;stroke:#1f77b4;" x="230.05477" xlink:href="#mbd50fb3143" y="284.379639"/>
     <use style="fill:#1f77b4;stroke:#1f77b4;" x="230.864919" xlink:href="#mbd50fb3143" y="284.729803"/>
     <use style="fill:#1f77b4;stroke:#1f77b4;" x="231.675472" xlink:href="#mbd50fb3143" y="285.07394"/>
     <use style="fill:#1f77b4;stroke:#1f77b4;" x="232.486431" xlink:href="#mbd50fb3143" y="285.412071"/>
     <use style="fill:#1f77b4;stroke:#1f77b4;" x="233.297794" xlink:href="#mbd50fb3143" y="285.744218"/>
     <use style="fill:#1f77b4;stroke:#1f77b4;" x="234.109563" xlink:href="#mbd50fb3143" y="286.070401"/>
     <use style="fill:#1f77b4;stroke:#1f77b4;" x="234.921736" xlink:href="#mbd50fb3143" y="286.390641"/>
     <use style="fill:#1f77b4;stroke:#1f77b4;" x="235.734315" xlink:href="#mbd50fb3143" y="286.70496"/>
     <use style="fill:#1f77b4;stroke:#1f77b4;" x="236.547299" xlink:href="#mbd50fb3143" y="287.013377"/>
     <use style="fill:#1f77b4;stroke:#1f77b4;" x="237.360689" xlink:href="#mbd50fb3143" y="287.315914"/>
     <use style="fill:#1f77b4;stroke:#1f77b4;" x="238.174484" xlink:href="#mbd50fb3143" y="287.612592"/>
     <use style="fill:#1f77b4;stroke:#1f77b4;" x="238.988685" xlink:href="#mbd50fb3143" y="287.903431"/>
     <use style="fill:#1f77b4;stroke:#1f77b4;" x="239.803292" xlink:href="#mbd50fb3143" y="288.188452"/>
     <use style="fill:#1f77b4;stroke:#1f77b4;" x="240.618305" xlink:href="#mbd50fb3143" y="288.467675"/>
     <use style="fill:#1f77b4;stroke:#1f77b4;" x="241.433723" xlink:href="#mbd50fb3143" y="288.741121"/>
     <use style="fill:#1f77b4;stroke:#1f77b4;" x="242.249548" xlink:href="#mbd50fb3143" y="289.00881"/>
     <use style="fill:#1f77b4;stroke:#1f77b4;" x="243.065779" xlink:href="#mbd50fb3143" y="289.270763"/>
     <use style="fill:#1f77b4;stroke:#1f77b4;" x="243.882416" xlink:href="#mbd50fb3143" y="289.527"/>
     <use style="fill:#1f77b4;stroke:#1f77b4;" x="244.69946" xlink:href="#mbd50fb3143" y="289.777541"/>
     <use style="fill:#1f77b4;stroke:#1f77b4;" x="245.51691" xlink:href="#mbd50fb3143" y="290.022407"/>
     <use style="fill:#1f77b4;stroke:#1f77b4;" x="246.334766" xlink:href="#mbd50fb3143" y="290.261617"/>
     <use style="fill:#1f77b4;stroke:#1f77b4;" x="247.15303" xlink:href="#mbd50fb3143" y="290.495192"/>
     <use style="fill:#1f77b4;stroke:#1f77b4;" x="247.9717" xlink:href="#mbd50fb3143" y="290.723151"/>
     <use style="fill:#1f77b4;stroke:#1f77b4;" x="248.790777" xlink:href="#mbd50fb3143" y="290.945515"/>
     <use style="fill:#1f77b4;stroke:#1f77b4;" x="249.610261" xlink:href="#mbd50fb3143" y="291.162303"/>
     <use style="fill:#1f77b4;stroke:#1f77b4;" x="250.430152" xlink:href="#mbd50fb3143" y="291.373535"/>
     <use style="fill:#1f77b4;stroke:#1f77b4;" x="251.25045" xlink:href="#mbd50fb3143" y="291.579232"/>
     <use style="fill:#1f77b4;stroke:#1f77b4;" x="252.071156" xlink:href="#mbd50fb3143" y="291.779413"/>
     <use style="fill:#1f77b4;stroke:#1f77b4;" x="252.892269" xlink:href="#mbd50fb3143" y="291.974097"/>
     <use style="fill:#1f77b4;stroke:#1f77b4;" x="253.71379" xlink:href="#mbd50fb3143" y="292.163304"/>
     <use style="fill:#1f77b4;stroke:#1f77b4;" x="254.535718" xlink:href="#mbd50fb3143" y="292.347053"/>
     <use style="fill:#1f77b4;stroke:#1f77b4;" x="255.358054" xlink:href="#mbd50fb3143" y="292.525365"/>
     <use style="fill:#1f77b4;stroke:#1f77b4;" x="256.180797" xlink:href="#mbd50fb3143" y="292.698259"/>
     <use style="fill:#1f77b4;stroke:#1f77b4;" x="257.003949" xlink:href="#mbd50fb3143" y="292.865753"/>
     <use style="fill:#1f77b4;stroke:#1f77b4;" x="257.827508" xlink:href="#mbd50fb3143" y="293.027868"/>
     <use style="fill:#1f77b4;stroke:#1f77b4;" x="258.651476" xlink:href="#mbd50fb3143" y="293.184622"/>
     <use style="fill:#1f77b4;stroke:#1f77b4;" x="259.475852" xlink:href="#mbd50fb3143" y="293.336036"/>
     <use style="fill:#1f77b4;stroke:#1f77b4;" x="260.300636" xlink:href="#mbd50fb3143" y="293.482127"/>
     <use style="fill:#1f77b4;stroke:#1f77b4;" x="261.125828" xlink:href="#mbd50fb3143" y="293.622915"/>
     <use style="fill:#1f77b4;stroke:#1f77b4;" x="261.95143" xlink:href="#mbd50fb3143" y="293.758419"/>
     <use style="fill:#1f77b4;stroke:#1f77b4;" x="262.777439" xlink:href="#mbd50fb3143" y="293.888659"/>
     <use style="fill:#1f77b4;stroke:#1f77b4;" x="263.603858" xlink:href="#mbd50fb3143" y="294.013652"/>
     <use style="fill:#1f77b4;stroke:#1f77b4;" x="264.430685" xlink:href="#mbd50fb3143" y="294.133419"/>
     <use style="fill:#1f77b4;stroke:#1f77b4;" x="265.257921" xlink:href="#mbd50fb3143" y="294.247977"/>
     <use style="fill:#1f77b4;stroke:#1f77b4;" x="266.085566" xlink:href="#mbd50fb3143" y="294.357346"/>
     <use style="fill:#1f77b4;stroke:#1f77b4;" x="266.91362" xlink:href="#mbd50fb3143" y="294.461544"/>
     <use style="fill:#1f77b4;stroke:#1f77b4;" x="267.742084" xlink:href="#mbd50fb3143" y="294.56059"/>
     <use style="fill:#1f77b4;stroke:#1f77b4;" x="268.570957" xlink:href="#mbd50fb3143" y="294.654502"/>
     <use style="fill:#1f77b4;stroke:#1f77b4;" x="269.400239" xlink:href="#mbd50fb3143" y="294.7433"/>
     <use style="fill:#1f77b4;stroke:#1f77b4;" x="270.229931" xlink:href="#mbd50fb3143" y="294.827001"/>
     <use style="fill:#1f77b4;stroke:#1f77b4;" x="271.060032" xlink:href="#mbd50fb3143" y="294.905624"/>
     <use style="fill:#1f77b4;stroke:#1f77b4;" x="271.890543" xlink:href="#mbd50fb3143" y="294.979188"/>
     <use style="fill:#1f77b4;stroke:#1f77b4;" x="272.721464" xlink:href="#mbd50fb3143" y="295.04771"/>
     <use style="fill:#1f77b4;stroke:#1f77b4;" x="273.552795" xlink:href="#mbd50fb3143" y="295.11121"/>
     <use style="fill:#1f77b4;stroke:#1f77b4;" x="274.384536" xlink:href="#mbd50fb3143" y="295.169705"/>
     <use style="fill:#1f77b4;stroke:#1f77b4;" x="275.216687" xlink:href="#mbd50fb3143" y="295.223213"/>
     <use style="fill:#1f77b4;stroke:#1f77b4;" x="276.049248" xlink:href="#mbd50fb3143" y="295.271753"/>
     <use style="fill:#1f77b4;stroke:#1f77b4;" x="276.88222" xlink:href="#mbd50fb3143" y="295.315342"/>
     <use style="fill:#1f77b4;stroke:#1f77b4;" x="277.715602" xlink:href="#mbd50fb3143" y="295.354"/>
     <use style="fill:#1f77b4;stroke:#1f77b4;" x="278.549394" xlink:href="#mbd50fb3143" y="295.387743"/>
     <use style="fill:#1f77b4;stroke:#1f77b4;" x="279.383597" xlink:href="#mbd50fb3143" y="295.416589"/>
     <use style="fill:#1f77b4;stroke:#1f77b4;" x="280.218211" xlink:href="#mbd50fb3143" y="295.440557"/>
     <use style="fill:#1f77b4;stroke:#1f77b4;" x="281.053236" xlink:href="#mbd50fb3143" y="295.459665"/>
     <use style="fill:#1f77b4;stroke:#1f77b4;" x="281.888672" xlink:href="#mbd50fb3143" y="295.473929"/>
     <use style="fill:#1f77b4;stroke:#1f77b4;" x="282.724518" xlink:href="#mbd50fb3143" y="295.483368"/>
     <use style="fill:#1f77b4;stroke:#1f77b4;" x="283.560776" xlink:href="#mbd50fb3143" y="295.488"/>
     <use style="fill:#1f77b4;stroke:#1f77b4;" x="284.397445" xlink:href="#mbd50fb3143" y="295.487842"/>
     <use style="fill:#1f77b4;stroke:#1f77b4;" x="285.234526" xlink:href="#mbd50fb3143" y="295.482911"/>
     <use style="fill:#1f77b4;stroke:#1f77b4;" x="286.072018" xlink:href="#mbd50fb3143" y="295.473225"/>
     <use style="fill:#1f77b4;stroke:#1f77b4;" x="286.909921" xlink:href="#mbd50fb3143" y="295.458802"/>
     <use style="fill:#1f77b4;stroke:#1f77b4;" x="287.748236" xlink:href="#mbd50fb3143" y="295.439659"/>
     <use style="fill:#1f77b4;stroke:#1f77b4;" x="288.586963" xlink:href="#mbd50fb3143" y="295.415813"/>
     <use style="fill:#1f77b4;stroke:#1f77b4;" x="289.426102" xlink:href="#mbd50fb3143" y="295.387281"/>
     <use style="fill:#1f77b4;stroke:#1f77b4;" x="290.265652" xlink:href="#mbd50fb3143" y="295.354082"/>
     <use style="fill:#1f77b4;stroke:#1f77b4;" x="291.105615" xlink:href="#mbd50fb3143" y="295.316231"/>
     <use style="fill:#1f77b4;stroke:#1f77b4;" x="291.94599" xlink:href="#mbd50fb3143" y="295.273747"/>
     <use style="fill:#1f77b4;stroke:#1f77b4;" x="292.786777" xlink:href="#mbd50fb3143" y="295.226645"/>
     <use style="fill:#1f77b4;stroke:#1f77b4;" x="293.627976" xlink:href="#mbd50fb3143" y="295.174945"/>
     <use style="fill:#1f77b4;stroke:#1f77b4;" x="294.469588" xlink:href="#mbd50fb3143" y="295.118661"/>
     <use style="fill:#1f77b4;stroke:#1f77b4;" x="295.311613" xlink:href="#mbd50fb3143" y="295.057812"/>
     <use style="fill:#1f77b4;stroke:#1f77b4;" x="296.15405" xlink:href="#mbd50fb3143" y="294.992414"/>
     <use style="fill:#1f77b4;stroke:#1f77b4;" x="296.996899" xlink:href="#mbd50fb3143" y="294.922484"/>
     <use style="fill:#1f77b4;stroke:#1f77b4;" x="297.840162" xlink:href="#mbd50fb3143" y="294.848039"/>
     <use style="fill:#1f77b4;stroke:#1f77b4;" x="298.683838" xlink:href="#mbd50fb3143" y="294.769095"/>
     <use style="fill:#1f77b4;stroke:#1f77b4;" x="299.527927" xlink:href="#mbd50fb3143" y="294.68567"/>
     <use style="fill:#1f77b4;stroke:#1f77b4;" x="300.372428" xlink:href="#mbd50fb3143" y="294.597779"/>
     <use style="fill:#1f77b4;stroke:#1f77b4;" x="301.217343" xlink:href="#mbd50fb3143" y="294.50544"/>
     <use style="fill:#1f77b4;stroke:#1f77b4;" x="302.062672" xlink:href="#mbd50fb3143" y="294.40867"/>
     <use style="fill:#1f77b4;stroke:#1f77b4;" x="302.908414" xlink:href="#mbd50fb3143" y="294.307483"/>
     <use style="fill:#1f77b4;stroke:#1f77b4;" x="303.754569" xlink:href="#mbd50fb3143" y="294.201898"/>
     <use style="fill:#1f77b4;stroke:#1f77b4;" x="304.601139" xlink:href="#mbd50fb3143" y="294.09193"/>
     <use style="fill:#1f77b4;stroke:#1f77b4;" x="305.448122" xlink:href="#mbd50fb3143" y="293.977596"/>
     <use style="fill:#1f77b4;stroke:#1f77b4;" x="306.295519" xlink:href="#mbd50fb3143" y="293.858913"/>
     <use style="fill:#1f77b4;stroke:#1f77b4;" x="307.143329" xlink:href="#mbd50fb3143" y="293.735895"/>
     <use style="fill:#1f77b4;stroke:#1f77b4;" x="307.991554" xlink:href="#mbd50fb3143" y="293.60856"/>
     <use style="fill:#1f77b4;stroke:#1f77b4;" x="308.840193" xlink:href="#mbd50fb3143" y="293.476924"/>
     <use style="fill:#1f77b4;stroke:#1f77b4;" x="309.689247" xlink:href="#mbd50fb3143" y="293.341003"/>
     <use style="fill:#1f77b4;stroke:#1f77b4;" x="310.538714" xlink:href="#mbd50fb3143" y="293.200813"/>
     <use style="fill:#1f77b4;stroke:#1f77b4;" x="311.388596" xlink:href="#mbd50fb3143" y="293.05637"/>
     <use style="fill:#1f77b4;stroke:#1f77b4;" x="312.238893" xlink:href="#mbd50fb3143" y="292.90769"/>
     <use style="fill:#1f77b4;stroke:#1f77b4;" x="313.089605" xlink:href="#mbd50fb3143" y="292.754789"/>
     <use style="fill:#1f77b4;stroke:#1f77b4;" x="313.940731" xlink:href="#mbd50fb3143" y="292.597683"/>
     <use style="fill:#1f77b4;stroke:#1f77b4;" x="314.792272" xlink:href="#mbd50fb3143" y="292.436387"/>
     <use style="fill:#1f77b4;stroke:#1f77b4;" x="315.644228" xlink:href="#mbd50fb3143" y="292.270918"/>
     <use style="fill:#1f77b4;stroke:#1f77b4;" x="316.496599" xlink:href="#mbd50fb3143" y="292.101291"/>
     <use style="fill:#1f77b4;stroke:#1f77b4;" x="317.349385" xlink:href="#mbd50fb3143" y="291.927521"/>
     <use style="fill:#1f77b4;stroke:#1f77b4;" x="318.202587" xlink:href="#mbd50fb3143" y="291.749626"/>
     <use style="fill:#1f77b4;stroke:#1f77b4;" x="319.056204" xlink:href="#mbd50fb3143" y="291.567619"/>
     <use style="fill:#1f77b4;stroke:#1f77b4;" x="319.910237" xlink:href="#mbd50fb3143" y="291.381518"/>
     <use style="fill:#1f77b4;stroke:#1f77b4;" x="320.764685" xlink:href="#mbd50fb3143" y="291.191336"/>
     <use style="fill:#1f77b4;stroke:#1f77b4;" x="321.619548" xlink:href="#mbd50fb3143" y="290.99709"/>
     <use style="fill:#1f77b4;stroke:#1f77b4;" x="322.474828" xlink:href="#mbd50fb3143" y="290.798796"/>
     <use style="fill:#1f77b4;stroke:#1f77b4;" x="323.330523" xlink:href="#mbd50fb3143" y="290.596467"/>
     <use style="fill:#1f77b4;stroke:#1f77b4;" x="324.186635" xlink:href="#mbd50fb3143" y="290.390121"/>
     <use style="fill:#1f77b4;stroke:#1f77b4;" x="325.043162" xlink:href="#mbd50fb3143" y="290.179772"/>
     <use style="fill:#1f77b4;stroke:#1f77b4;" x="325.900106" xlink:href="#mbd50fb3143" y="289.965435"/>
     <use style="fill:#1f77b4;stroke:#1f77b4;" x="326.757466" xlink:href="#mbd50fb3143" y="289.747126"/>
     <use style="fill:#1f77b4;stroke:#1f77b4;" x="327.615243" xlink:href="#mbd50fb3143" y="289.52486"/>
     <use style="fill:#1f77b4;stroke:#1f77b4;" x="328.473435" xlink:href="#mbd50fb3143" y="289.298651"/>
     <use style="fill:#1f77b4;stroke:#1f77b4;" x="329.332045" xlink:href="#mbd50fb3143" y="289.068516"/>
     <use style="fill:#1f77b4;stroke:#1f77b4;" x="330.191071" xlink:href="#mbd50fb3143" y="288.834468"/>
     <use style="fill:#1f77b4;stroke:#1f77b4;" x="331.050514" xlink:href="#mbd50fb3143" y="288.596523"/>
     <use style="fill:#1f77b4;stroke:#1f77b4;" x="331.910374" xlink:href="#mbd50fb3143" y="288.354696"/>
     <use style="fill:#1f77b4;stroke:#1f77b4;" x="332.770651" xlink:href="#mbd50fb3143" y="288.109002"/>
     <use style="fill:#1f77b4;stroke:#1f77b4;" x="333.631345" xlink:href="#mbd50fb3143" y="287.859455"/>
     <use style="fill:#1f77b4;stroke:#1f77b4;" x="334.492456" xlink:href="#mbd50fb3143" y="287.606071"/>
     <use style="fill:#1f77b4;stroke:#1f77b4;" x="335.353985" xlink:href="#mbd50fb3143" y="287.348864"/>
     <use style="fill:#1f77b4;stroke:#1f77b4;" x="336.215931" xlink:href="#mbd50fb3143" y="287.087849"/>
     <use style="fill:#1f77b4;stroke:#1f77b4;" x="337.078294" xlink:href="#mbd50fb3143" y="286.82304"/>
     <use style="fill:#1f77b4;stroke:#1f77b4;" x="337.941075" xlink:href="#mbd50fb3143" y="286.554452"/>
     <use style="fill:#1f77b4;stroke:#1f77b4;" x="338.804274" xlink:href="#mbd50fb3143" y="286.2821"/>
     <use style="fill:#1f77b4;stroke:#1f77b4;" x="339.667891" xlink:href="#mbd50fb3143" y="286.005999"/>
     <use style="fill:#1f77b4;stroke:#1f77b4;" x="340.531925" xlink:href="#mbd50fb3143" y="285.726162"/>
     <use style="fill:#1f77b4;stroke:#1f77b4;" x="341.396378" xlink:href="#mbd50fb3143" y="285.442604"/>
     <use style="fill:#1f77b4;stroke:#1f77b4;" x="342.261248" xlink:href="#mbd50fb3143" y="285.15534"/>
     <use style="fill:#1f77b4;stroke:#1f77b4;" x="343.126537" xlink:href="#mbd50fb3143" y="284.864384"/>
     <use style="fill:#1f77b4;stroke:#1f77b4;" x="343.992244" xlink:href="#mbd50fb3143" y="284.56975"/>
     <use style="fill:#1f77b4;stroke:#1f77b4;" x="344.85837" xlink:href="#mbd50fb3143" y="284.271453"/>
     <use style="fill:#1f77b4;stroke:#1f77b4;" x="345.724914" xlink:href="#mbd50fb3143" y="283.969507"/>
     <use style="fill:#1f77b4;stroke:#1f77b4;" x="346.591877" xlink:href="#mbd50fb3143" y="283.663926"/>
     <use style="fill:#1f77b4;stroke:#1f77b4;" x="347.459258" xlink:href="#mbd50fb3143" y="283.354724"/>
     <use style="fill:#1f77b4;stroke:#1f77b4;" x="348.327058" xlink:href="#mbd50fb3143" y="283.041915"/>
     <use style="fill:#1f77b4;stroke:#1f77b4;" x="349.195277" xlink:href="#mbd50fb3143" y="282.725514"/>
     <use style="fill:#1f77b4;stroke:#1f77b4;" x="350.063916" xlink:href="#mbd50fb3143" y="282.405534"/>
     <use style="fill:#1f77b4;stroke:#1f77b4;" x="350.932973" xlink:href="#mbd50fb3143" y="282.08199"/>
     <use style="fill:#1f77b4;stroke:#1f77b4;" x="351.802449" xlink:href="#mbd50fb3143" y="281.754895"/>
     <use style="fill:#1f77b4;stroke:#1f77b4;" x="352.672345" xlink:href="#mbd50fb3143" y="281.424263"/>
     <use style="fill:#1f77b4;stroke:#1f77b4;" x="353.542661" xlink:href="#mbd50fb3143" y="281.090108"/>
     <use style="fill:#1f77b4;stroke:#1f77b4;" x="354.413396" xlink:href="#mbd50fb3143" y="280.752445"/>
     <use style="fill:#1f77b4;stroke:#1f77b4;" x="355.28455" xlink:href="#mbd50fb3143" y="280.411286"/>
     <use style="fill:#1f77b4;stroke:#1f77b4;" x="356.156124" xlink:href="#mbd50fb3143" y="280.066645"/>
     <use style="fill:#1f77b4;stroke:#1f77b4;" x="357.028118" xlink:href="#mbd50fb3143" y="279.718537"/>
     <use style="fill:#1f77b4;stroke:#1f77b4;" x="357.900532" xlink:href="#mbd50fb3143" y="279.366974"/>
     <use style="fill:#1f77b4;stroke:#1f77b4;" x="358.773366" xlink:href="#mbd50fb3143" y="279.011971"/>
     <use style="fill:#1f77b4;stroke:#1f77b4;" x="359.64662" xlink:href="#mbd50fb3143" y="278.653541"/>
     <use style="fill:#1f77b4;stroke:#1f77b4;" x="360.520295" xlink:href="#mbd50fb3143" y="278.291698"/>
     <use style="fill:#1f77b4;stroke:#1f77b4;" x="361.39439" xlink:href="#mbd50fb3143" y="277.926455"/>
     <use style="fill:#1f77b4;stroke:#1f77b4;" x="362.268905" xlink:href="#mbd50fb3143" y="277.557825"/>
     <use style="fill:#1f77b4;stroke:#1f77b4;" x="363.14384" xlink:href="#mbd50fb3143" y="277.185822"/>
     <use style="fill:#1f77b4;stroke:#1f77b4;" x="364.019197" xlink:href="#mbd50fb3143" y="276.81046"/>
     <use style="fill:#1f77b4;stroke:#1f77b4;" x="364.894974" xlink:href="#mbd50fb3143" y="276.431751"/>
     <use style="fill:#1f77b4;stroke:#1f77b4;" x="365.771172" xlink:href="#mbd50fb3143" y="276.049709"/>
     <use style="fill:#1f77b4;stroke:#1f77b4;" x="366.647791" xlink:href="#mbd50fb3143" y="275.664348"/>
     <use style="fill:#1f77b4;stroke:#1f77b4;" x="367.524831" xlink:href="#mbd50fb3143" y="275.27568"/>
     <use style="fill:#1f77b4;stroke:#1f77b4;" x="368.402292" xlink:href="#mbd50fb3143" y="274.883718"/>
     <use style="fill:#1f77b4;stroke:#1f77b4;" x="369.280174" xlink:href="#mbd50fb3143" y="274.488477"/>
     <use style="fill:#1f77b4;stroke:#1f77b4;" x="370.158478" xlink:href="#mbd50fb3143" y="274.089968"/>
     <use style="fill:#1f77b4;stroke:#1f77b4;" x="371.037203" xlink:href="#mbd50fb3143" y="273.688205"/>
     <use style="fill:#1f77b4;stroke:#1f77b4;" x="371.916349" xlink:href="#mbd50fb3143" y="273.283201"/>
     <use style="fill:#1f77b4;stroke:#1f77b4;" x="372.795918" xlink:href="#mbd50fb3143" y="272.874969"/>
     <use style="fill:#1f77b4;stroke:#1f77b4;" x="373.675908" xlink:href="#mbd50fb3143" y="272.463522"/>
     <use style="fill:#1f77b4;stroke:#1f77b4;" x="374.55632" xlink:href="#mbd50fb3143" y="272.048873"/>
     <use style="fill:#1f77b4;stroke:#1f77b4;" x="375.437154" xlink:href="#mbd50fb3143" y="271.631034"/>
     <use style="fill:#1f77b4;stroke:#1f77b4;" x="376.31841" xlink:href="#mbd50fb3143" y="271.210019"/>
     <use style="fill:#1f77b4;stroke:#1f77b4;" x="377.200088" xlink:href="#mbd50fb3143" y="270.785841"/>
     <use style="fill:#1f77b4;stroke:#1f77b4;" x="378.082188" xlink:href="#mbd50fb3143" y="270.358511"/>
     <use style="fill:#1f77b4;stroke:#1f77b4;" x="378.964711" xlink:href="#mbd50fb3143" y="269.928043"/>
     <use style="fill:#1f77b4;stroke:#1f77b4;" x="379.847656" xlink:href="#mbd50fb3143" y="269.49445"/>
     <use style="fill:#1f77b4;stroke:#1f77b4;" x="380.731024" xlink:href="#mbd50fb3143" y="269.057743"/>
     <use style="fill:#1f77b4;stroke:#1f77b4;" x="381.614814" xlink:href="#mbd50fb3143" y="268.617937"/>
     <use style="fill:#1f77b4;stroke:#1f77b4;" x="382.499027" xlink:href="#mbd50fb3143" y="268.175042"/>
     <use style="fill:#1f77b4;stroke:#1f77b4;" x="383.383663" xlink:href="#mbd50fb3143" y="267.729073"/>
     <use style="fill:#1f77b4;stroke:#1f77b4;" x="384.268722" xlink:href="#mbd50fb3143" y="267.280041"/>
     <use style="fill:#1f77b4;stroke:#1f77b4;" x="385.154205" xlink:href="#mbd50fb3143" y="266.827958"/>
     <use style="fill:#1f77b4;stroke:#1f77b4;" x="386.04011" xlink:href="#mbd50fb3143" y="266.372838"/>
     <use style="fill:#1f77b4;stroke:#1f77b4;" x="386.926438" xlink:href="#mbd50fb3143" y="265.914692"/>
     <use style="fill:#1f77b4;stroke:#1f77b4;" x="387.81319" xlink:href="#mbd50fb3143" y="265.453533"/>
     <use style="fill:#1f77b4;stroke:#1f77b4;" x="388.700366" xlink:href="#mbd50fb3143" y="264.989373"/>
     <use style="fill:#1f77b4;stroke:#1f77b4;" x="389.587965" xlink:href="#mbd50fb3143" y="264.522224"/>
     <use style="fill:#1f77b4;stroke:#1f77b4;" x="390.475987" xlink:href="#mbd50fb3143" y="264.052099"/>
     <use style="fill:#1f77b4;stroke:#1f77b4;" x="391.364434" xlink:href="#mbd50fb3143" y="263.579011"/>
     <use style="fill:#1f77b4;stroke:#1f77b4;" x="392.253304" xlink:href="#mbd50fb3143" y="263.10297"/>
     <use style="fill:#1f77b4;stroke:#1f77b4;" x="393.142598" xlink:href="#mbd50fb3143" y="262.623989"/>
     <use style="fill:#1f77b4;stroke:#1f77b4;" x="394.032316" xlink:href="#mbd50fb3143" y="262.14208"/>
     <use style="fill:#1f77b4;stroke:#1f77b4;" x="394.922459" xlink:href="#mbd50fb3143" y="261.657256"/>
     <use style="fill:#1f77b4;stroke:#1f77b4;" x="395.813026" xlink:href="#mbd50fb3143" y="261.169528"/>
     <use style="fill:#1f77b4;stroke:#1f77b4;" x="396.704017" xlink:href="#mbd50fb3143" y="260.678908"/>
     <use style="fill:#1f77b4;stroke:#1f77b4;" x="397.595433" xlink:href="#mbd50fb3143" y="260.185409"/>
     <use style="fill:#1f77b4;stroke:#1f77b4;" x="398.487273" xlink:href="#mbd50fb3143" y="259.689042"/>
    </g>
   </g>
   <g id="patch_3">
    <path d="M 57.6 307.584 
L 57.6 41.472 
" style="fill:none;stroke:#000000;stroke-linecap:square;stroke-linejoin:miter;stroke-width:0.8;"/>
   </g>
   <g id="patch_4">
    <path d="M 414.72 307.584 
L 414.72 41.472 
" style="fill:none;stroke:#000000;stroke-linecap:square;stroke-linejoin:miter;stroke-width:0.8;"/>
   </g>
   <g id="patch_5">
    <path d="M 57.6 307.584 
L 414.72 307.584 
" style="fill:none;stroke:#000000;stroke-linecap:square;stroke-linejoin:miter;stroke-width:0.8;"/>
   </g>
   <g id="patch_6">
    <path d="M 57.6 41.472 
L 414.72 41.472 
" style="fill:none;stroke:#000000;stroke-linecap:square;stroke-linejoin:miter;stroke-width:0.8;"/>
   </g>
   <g id="text_14">
    <!-- sj: E: -3.828 eV, V: 16.832 Å$^3$, B: 184.940 GPa -->
    <g transform="translate(98.7 35.472)scale(0.12 -0.12)">
     <defs>
      <path d="M 44.28125 53.078125 
L 44.28125 44.578125 
Q 40.484375 46.53125 36.375 47.5 
Q 32.28125 48.484375 27.875 48.484375 
Q 21.1875 48.484375 17.84375 46.4375 
Q 14.5 44.390625 14.5 40.28125 
Q 14.5 37.15625 16.890625 35.375 
Q 19.28125 33.59375 26.515625 31.984375 
L 29.59375 31.296875 
Q 39.15625 29.25 43.1875 25.515625 
Q 47.21875 21.78125 47.21875 15.09375 
Q 47.21875 7.46875 41.1875 3.015625 
Q 35.15625 -1.421875 24.609375 -1.421875 
Q 20.21875 -1.421875 15.453125 -0.5625 
Q 10.6875 0.296875 5.421875 2 
L 5.421875 11.28125 
Q 10.40625 8.6875 15.234375 7.390625 
Q 20.0625 6.109375 24.8125 6.109375 
Q 31.15625 6.109375 34.5625 8.28125 
Q 37.984375 10.453125 37.984375 14.40625 
Q 37.984375 18.0625 35.515625 20.015625 
Q 33.0625 21.96875 24.703125 23.78125 
L 21.578125 24.515625 
Q 13.234375 26.265625 9.515625 29.90625 
Q 5.8125 33.546875 5.8125 39.890625 
Q 5.8125 47.609375 11.28125 51.796875 
Q 16.75 56 26.8125 56 
Q 31.78125 56 36.171875 55.265625 
Q 40.578125 54.546875 44.28125 53.078125 
z
" id="DejaVuSans-115"/>
      <path d="M 9.421875 54.6875 
L 18.40625 54.6875 
L 18.40625 -0.984375 
Q 18.40625 -11.421875 14.421875 -16.109375 
Q 10.453125 -20.796875 1.609375 -20.796875 
L -1.8125 -20.796875 
L -1.8125 -13.1875 
L 0.59375 -13.1875 
Q 5.71875 -13.1875 7.5625 -10.8125 
Q 9.421875 -8.453125 9.421875 -0.984375 
z
M 9.421875 75.984375 
L 18.40625 75.984375 
L 18.40625 64.59375 
L 9.421875 64.59375 
z
" id="DejaVuSans-106"/>
      <path d="M 11.71875 12.40625 
L 22.015625 12.40625 
L 22.015625 0 
L 11.71875 0 
z
M 11.71875 51.703125 
L 22.015625 51.703125 
L 22.015625 39.3125 
L 11.71875 39.3125 
z
" id="DejaVuSans-58"/>
      <path d="M 9.8125 72.90625 
L 55.90625 72.90625 
L 55.90625 64.59375 
L 19.671875 64.59375 
L 19.671875 43.015625 
L 54.390625 43.015625 
L 54.390625 34.71875 
L 19.671875 34.71875 
L 19.671875 8.296875 
L 56.78125 8.296875 
L 56.78125 0 
L 9.8125 0 
z
" id="DejaVuSans-69"/>
      <path d="M 4.890625 31.390625 
L 31.203125 31.390625 
L 31.203125 23.390625 
L 4.890625 23.390625 
z
" id="DejaVuSans-45"/>
      <path d="M 19.1875 8.296875 
L 53.609375 8.296875 
L 53.609375 0 
L 7.328125 0 
L 7.328125 8.296875 
Q 12.9375 14.109375 22.625 23.890625 
Q 32.328125 33.6875 34.8125 36.53125 
Q 39.546875 41.84375 41.421875 45.53125 
Q 43.3125 49.21875 43.3125 52.78125 
Q 43.3125 58.59375 39.234375 62.25 
Q 35.15625 65.921875 28.609375 65.921875 
Q 23.96875 65.921875 18.8125 64.3125 
Q 13.671875 62.703125 7.8125 59.421875 
L 7.8125 69.390625 
Q 13.765625 71.78125 18.9375 73 
Q 24.125 74.21875 28.421875 74.21875 
Q 39.75 74.21875 46.484375 68.546875 
Q 53.21875 62.890625 53.21875 53.421875 
Q 53.21875 48.921875 51.53125 44.890625 
Q 49.859375 40.875 45.40625 35.40625 
Q 44.1875 33.984375 37.640625 27.21875 
Q 31.109375 20.453125 19.1875 8.296875 
z
" id="DejaVuSans-50"/>
      <path d="M 11.71875 12.40625 
L 22.015625 12.40625 
L 22.015625 4 
L 14.015625 -11.625 
L 7.71875 -11.625 
L 11.71875 4 
z
" id="DejaVuSans-44"/>
      <path d="M 19.671875 34.8125 
L 19.671875 8.109375 
L 35.5 8.109375 
Q 43.453125 8.109375 47.28125 11.40625 
Q 51.125 14.703125 51.125 21.484375 
Q 51.125 28.328125 47.28125 31.5625 
Q 43.453125 34.8125 35.5 34.8125 
z
M 19.671875 64.796875 
L 19.671875 42.828125 
L 34.28125 42.828125 
Q 41.5 42.828125 45.03125 45.53125 
Q 48.578125 48.25 48.578125 53.8125 
Q 48.578125 59.328125 45.03125 62.0625 
Q 41.5 64.796875 34.28125 64.796875 
z
M 9.8125 72.90625 
L 35.015625 72.90625 
Q 46.296875 72.90625 52.390625 68.21875 
Q 58.5 63.53125 58.5 54.890625 
Q 58.5 48.1875 55.375 44.234375 
Q 52.25 40.28125 46.1875 39.3125 
Q 53.46875 37.75 57.5 32.78125 
Q 61.53125 27.828125 61.53125 20.40625 
Q 61.53125 10.640625 54.890625 5.3125 
Q 48.25 0 35.984375 0 
L 9.8125 0 
z
" id="DejaVuSans-66"/>
      <path d="M 10.984375 1.515625 
L 10.984375 10.5 
Q 14.703125 8.734375 18.5 7.8125 
Q 22.3125 6.890625 25.984375 6.890625 
Q 35.75 6.890625 40.890625 13.453125 
Q 46.046875 20.015625 46.78125 33.40625 
Q 43.953125 29.203125 39.59375 26.953125 
Q 35.25 24.703125 29.984375 24.703125 
Q 19.046875 24.703125 12.671875 31.3125 
Q 6.296875 37.9375 6.296875 49.421875 
Q 6.296875 60.640625 12.9375 67.421875 
Q 19.578125 74.21875 30.609375 74.21875 
Q 43.265625 74.21875 49.921875 64.515625 
Q 56.59375 54.828125 56.59375 36.375 
Q 56.59375 19.140625 48.40625 8.859375 
Q 40.234375 -1.421875 26.421875 -1.421875 
Q 22.703125 -1.421875 18.890625 -0.6875 
Q 15.09375 0.046875 10.984375 1.515625 
z
M 30.609375 32.421875 
Q 37.25 32.421875 41.125 36.953125 
Q 45.015625 41.5 45.015625 49.421875 
Q 45.015625 57.28125 41.125 61.84375 
Q 37.25 66.40625 30.609375 66.40625 
Q 23.96875 66.40625 20.09375 61.84375 
Q 16.21875 57.28125 16.21875 49.421875 
Q 16.21875 41.5 20.09375 36.953125 
Q 23.96875 32.421875 30.609375 32.421875 
z
" id="DejaVuSans-57"/>
      <path d="M 31.78125 66.40625 
Q 24.171875 66.40625 20.328125 58.90625 
Q 16.5 51.421875 16.5 36.375 
Q 16.5 21.390625 20.328125 13.890625 
Q 24.171875 6.390625 31.78125 6.390625 
Q 39.453125 6.390625 43.28125 13.890625 
Q 47.125 21.390625 47.125 36.375 
Q 47.125 51.421875 43.28125 58.90625 
Q 39.453125 66.40625 31.78125 66.40625 
z
M 31.78125 74.21875 
Q 44.046875 74.21875 50.515625 64.515625 
Q 56.984375 54.828125 56.984375 36.375 
Q 56.984375 17.96875 50.515625 8.265625 
Q 44.046875 -1.421875 31.78125 -1.421875 
Q 19.53125 -1.421875 13.0625 8.265625 
Q 6.59375 17.96875 6.59375 36.375 
Q 6.59375 54.828125 13.0625 64.515625 
Q 19.53125 74.21875 31.78125 74.21875 
z
" id="DejaVuSans-48"/>
      <path d="M 59.515625 10.40625 
L 59.515625 29.984375 
L 43.40625 29.984375 
L 43.40625 38.09375 
L 69.28125 38.09375 
L 69.28125 6.78125 
Q 63.578125 2.734375 56.6875 0.65625 
Q 49.8125 -1.421875 42 -1.421875 
Q 24.90625 -1.421875 15.25 8.5625 
Q 5.609375 18.5625 5.609375 36.375 
Q 5.609375 54.25 15.25 64.234375 
Q 24.90625 74.21875 42 74.21875 
Q 49.125 74.21875 55.546875 72.453125 
Q 61.96875 70.703125 67.390625 67.28125 
L 67.390625 56.78125 
Q 61.921875 61.421875 55.765625 63.765625 
Q 49.609375 66.109375 42.828125 66.109375 
Q 29.4375 66.109375 22.71875 58.640625 
Q 16.015625 51.171875 16.015625 36.375 
Q 16.015625 21.625 22.71875 14.15625 
Q 29.4375 6.6875 42.828125 6.6875 
Q 48.046875 6.6875 52.140625 7.59375 
Q 56.25 8.5 59.515625 10.40625 
z
" id="DejaVuSans-71"/>
      <path d="M 19.671875 64.796875 
L 19.671875 37.40625 
L 32.078125 37.40625 
Q 38.96875 37.40625 42.71875 40.96875 
Q 46.484375 44.53125 46.484375 51.125 
Q 46.484375 57.671875 42.71875 61.234375 
Q 38.96875 64.796875 32.078125 64.796875 
z
M 9.8125 72.90625 
L 32.078125 72.90625 
Q 44.34375 72.90625 50.609375 67.359375 
Q 56.890625 61.8125 56.890625 51.125 
Q 56.890625 40.328125 50.609375 34.8125 
Q 44.34375 29.296875 32.078125 29.296875 
L 19.671875 29.296875 
L 19.671875 0 
L 9.8125 0 
z
" id="DejaVuSans-80"/>
      <path d="M 34.28125 27.484375 
Q 23.390625 27.484375 19.1875 25 
Q 14.984375 22.515625 14.984375 16.5 
Q 14.984375 11.71875 18.140625 8.90625 
Q 21.296875 6.109375 26.703125 6.109375 
Q 34.1875 6.109375 38.703125 11.40625 
Q 43.21875 16.703125 43.21875 25.484375 
L 43.21875 27.484375 
z
M 52.203125 31.203125 
L 52.203125 0 
L 43.21875 0 
L 43.21875 8.296875 
Q 40.140625 3.328125 35.546875 0.953125 
Q 30.953125 -1.421875 24.3125 -1.421875 
Q 15.921875 -1.421875 10.953125 3.296875 
Q 6 8.015625 6 15.921875 
Q 6 25.140625 12.171875 29.828125 
Q 18.359375 34.515625 30.609375 34.515625 
L 43.21875 34.515625 
L 43.21875 35.40625 
Q 43.21875 41.609375 39.140625 45 
Q 35.0625 48.390625 27.6875 48.390625 
Q 23 48.390625 18.546875 47.265625 
Q 14.109375 46.140625 10.015625 43.890625 
L 10.015625 52.203125 
Q 14.9375 54.109375 19.578125 55.046875 
Q 24.21875 56 28.609375 56 
Q 40.484375 56 46.34375 49.84375 
Q 52.203125 43.703125 52.203125 31.203125 
z
" id="DejaVuSans-97"/>
     </defs>
     <use transform="translate(0 0.171875)" xlink:href="#DejaVuSans-115"/>
     <use transform="translate(52.099609 0.171875)" xlink:href="#DejaVuSans-106"/>
     <use transform="translate(79.882812 0.171875)" xlink:href="#DejaVuSans-58"/>
     <use transform="translate(113.574219 0.171875)" xlink:href="#DejaVuSans-32"/>
     <use transform="translate(145.361328 0.171875)" xlink:href="#DejaVuSans-69"/>
     <use transform="translate(208.544922 0.171875)" xlink:href="#DejaVuSans-58"/>
     <use transform="translate(242.236328 0.171875)" xlink:href="#DejaVuSans-32"/>
     <use transform="translate(274.023438 0.171875)" xlink:href="#DejaVuSans-45"/>
     <use transform="translate(310.107422 0.171875)" xlink:href="#DejaVuSans-51"/>
     <use transform="translate(373.730469 0.171875)" xlink:href="#DejaVuSans-46"/>
     <use transform="translate(402.892578 0.171875)" xlink:href="#DejaVuSans-56"/>
     <use transform="translate(466.515625 0.171875)" xlink:href="#DejaVuSans-50"/>
     <use transform="translate(530.138672 0.171875)" xlink:href="#DejaVuSans-56"/>
     <use transform="translate(593.761719 0.171875)" xlink:href="#DejaVuSans-32"/>
     <use transform="translate(625.548828 0.171875)" xlink:href="#DejaVuSans-101"/>
     <use transform="translate(687.072266 0.171875)" xlink:href="#DejaVuSans-86"/>
     <use transform="translate(755.480469 0.171875)" xlink:href="#DejaVuSans-44"/>
     <use transform="translate(787.267578 0.171875)" xlink:href="#DejaVuSans-32"/>
     <use transform="translate(819.054688 0.171875)" xlink:href="#DejaVuSans-86"/>
     <use transform="translate(887.462891 0.171875)" xlink:href="#DejaVuSans-58"/>
     <use transform="translate(921.154297 0.171875)" xlink:href="#DejaVuSans-32"/>
     <use transform="translate(952.941406 0.171875)" xlink:href="#DejaVuSans-49"/>
     <use transform="translate(1016.564453 0.171875)" xlink:href="#DejaVuSans-54"/>
     <use transform="translate(1080.1875 0.171875)" xlink:href="#DejaVuSans-46"/>
     <use transform="translate(1109.349609 0.171875)" xlink:href="#DejaVuSans-56"/>
     <use transform="translate(1172.972656 0.171875)" xlink:href="#DejaVuSans-51"/>
     <use transform="translate(1236.595703 0.171875)" xlink:href="#DejaVuSans-50"/>
     <use transform="translate(1300.21875 0.171875)" xlink:href="#DejaVuSans-32"/>
     <use transform="translate(1332.005859 0.171875)" xlink:href="#DejaVuSans-197"/>
     <use transform="translate(1401.371094 38.453125)scale(0.7)" xlink:href="#DejaVuSans-51"/>
     <use transform="translate(1448.641602 0.171875)" xlink:href="#DejaVuSans-44"/>
     <use transform="translate(1480.428711 0.171875)" xlink:href="#DejaVuSans-32"/>
     <use transform="translate(1512.21582 0.171875)" xlink:href="#DejaVuSans-66"/>
     <use transform="translate(1580.819336 0.171875)" xlink:href="#DejaVuSans-58"/>
     <use transform="translate(1614.510742 0.171875)" xlink:href="#DejaVuSans-32"/>
     <use transform="translate(1646.297852 0.171875)" xlink:href="#DejaVuSans-49"/>
     <use transform="translate(1709.920898 0.171875)" xlink:href="#DejaVuSans-56"/>
     <use transform="translate(1773.543945 0.171875)" xlink:href="#DejaVuSans-52"/>
     <use transform="translate(1837.166992 0.171875)" xlink:href="#DejaVuSans-46"/>
     <use transform="translate(1868.954102 0.171875)" xlink:href="#DejaVuSans-57"/>
     <use transform="translate(1932.577148 0.171875)" xlink:href="#DejaVuSans-52"/>
     <use transform="translate(1996.200195 0.171875)" xlink:href="#DejaVuSans-48"/>
     <use transform="translate(2059.823242 0.171875)" xlink:href="#DejaVuSans-32"/>
     <use transform="translate(2091.610352 0.171875)" xlink:href="#DejaVuSans-71"/>
     <use transform="translate(2169.100586 0.171875)" xlink:href="#DejaVuSans-80"/>
     <use transform="translate(2229.40332 0.171875)" xlink:href="#DejaVuSans-97"/>
    </g>
   </g>
  </g>
 </g>
 <defs>
  <clipPath id="pd27d46132e">
   <rect height="266.112" width="357.12" x="57.6" y="41.472"/>
  </clipPath>
 </defs>
</svg>
