<?xml version="1.0" encoding="utf-8" standalone="no"?>
<!DOCTYPE svg PUBLIC "-//W3C//DTD SVG 1.1//EN"
  "http://www.w3.org/Graphics/SVG/1.1/DTD/svg11.dtd">
<!-- Created with matplotlib (https://matplotlib.org/) -->
<svg height="345.6pt" version="1.1" viewBox="0 0 460.8 345.6" width="460.8pt" xmlns="http://www.w3.org/2000/svg" xmlns:xlink="http://www.w3.org/1999/xlink">
 <metadata>
  <rdf:RDF xmlns:cc="http://creativecommons.org/ns#" xmlns:dc="http://purl.org/dc/elements/1.1/" xmlns:rdf="http://www.w3.org/1999/02/22-rdf-syntax-ns#">
   <cc:Work>
    <dc:type rdf:resource="http://purl.org/dc/dcmitype/StillImage"/>
    <dc:date>2021-04-23T04:11:19.081602</dc:date>
    <dc:format>image/svg+xml</dc:format>
    <dc:creator>
     <cc:Agent>
      <dc:title>Matplotlib v3.3.4, https://matplotlib.org/</dc:title>
     </cc:Agent>
    </dc:creator>
   </cc:Work>
  </rdf:RDF>
 </metadata>
 <defs>
  <style type="text/css">*{stroke-linecap:butt;stroke-linejoin:round;}</style>
 </defs>
 <g id="figure_1">
  <g id="patch_1">
   <path d="M 0 345.6 
L 460.8 345.6 
L 460.8 0 
L 0 0 
z
" style="fill:#ffffff;"/>
  </g>
  <g id="axes_1">
   <g id="patch_2">
    <path d="M 57.6 307.584 
L 414.72 307.584 
L 414.72 41.472 
L 57.6 41.472 
z
" style="fill:#ffffff;"/>
   </g>
   <g id="matplotlib.axis_1">
    <g id="xtick_1">
     <g id="line2d_1">
      <defs>
       <path d="M 0 0 
L 0 3.5 
" id="md4bba01a08" style="stroke:#000000;stroke-width:0.8;"/>
      </defs>
      <g>
       <use style="stroke:#000000;stroke-width:0.8;" x="116.899147" xlink:href="#md4bba01a08" y="307.584"/>
      </g>
     </g>
     <g id="text_1">
      <!-- 10 -->
      <g transform="translate(110.536647 322.182437)scale(0.1 -0.1)">
       <defs>
        <path d="M 12.40625 8.296875 
L 28.515625 8.296875 
L 28.515625 63.921875 
L 10.984375 60.40625 
L 10.984375 69.390625 
L 28.421875 72.90625 
L 38.28125 72.90625 
L 38.28125 8.296875 
L 54.390625 8.296875 
L 54.390625 0 
L 12.40625 0 
z
" id="DejaVuSans-49"/>
        <path d="M 31.78125 66.40625 
Q 24.171875 66.40625 20.328125 58.90625 
Q 16.5 51.421875 16.5 36.375 
Q 16.5 21.390625 20.328125 13.890625 
Q 24.171875 6.390625 31.78125 6.390625 
Q 39.453125 6.390625 43.28125 13.890625 
Q 47.125 21.390625 47.125 36.375 
Q 47.125 51.421875 43.28125 58.90625 
Q 39.453125 66.40625 31.78125 66.40625 
z
M 31.78125 74.21875 
Q 44.046875 74.21875 50.515625 64.515625 
Q 56.984375 54.828125 56.984375 36.375 
Q 56.984375 17.96875 50.515625 8.265625 
Q 44.046875 -1.421875 31.78125 -1.421875 
Q 19.53125 -1.421875 13.0625 8.265625 
Q 6.59375 17.96875 6.59375 36.375 
Q 6.59375 54.828125 13.0625 64.515625 
Q 19.53125 74.21875 31.78125 74.21875 
z
" id="DejaVuSans-48"/>
       </defs>
       <use xlink:href="#DejaVuSans-49"/>
       <use x="63.623047" xlink:href="#DejaVuSans-48"/>
      </g>
     </g>
    </g>
    <g id="xtick_2">
     <g id="line2d_2">
      <g>
       <use style="stroke:#000000;stroke-width:0.8;" x="183.155176" xlink:href="#md4bba01a08" y="307.584"/>
      </g>
     </g>
     <g id="text_2">
      <!-- 15 -->
      <g transform="translate(176.792676 322.182437)scale(0.1 -0.1)">
       <defs>
        <path d="M 10.796875 72.90625 
L 49.515625 72.90625 
L 49.515625 64.59375 
L 19.828125 64.59375 
L 19.828125 46.734375 
Q 21.96875 47.46875 24.109375 47.828125 
Q 26.265625 48.1875 28.421875 48.1875 
Q 40.625 48.1875 47.75 41.5 
Q 54.890625 34.8125 54.890625 23.390625 
Q 54.890625 11.625 47.5625 5.09375 
Q 40.234375 -1.421875 26.90625 -1.421875 
Q 22.3125 -1.421875 17.546875 -0.640625 
Q 12.796875 0.140625 7.71875 1.703125 
L 7.71875 11.625 
Q 12.109375 9.234375 16.796875 8.0625 
Q 21.484375 6.890625 26.703125 6.890625 
Q 35.15625 6.890625 40.078125 11.328125 
Q 45.015625 15.765625 45.015625 23.390625 
Q 45.015625 31 40.078125 35.4375 
Q 35.15625 39.890625 26.703125 39.890625 
Q 22.75 39.890625 18.8125 39.015625 
Q 14.890625 38.140625 10.796875 36.28125 
z
" id="DejaVuSans-53"/>
       </defs>
       <use xlink:href="#DejaVuSans-49"/>
       <use x="63.623047" xlink:href="#DejaVuSans-53"/>
      </g>
     </g>
    </g>
    <g id="xtick_3">
     <g id="line2d_3">
      <g>
       <use style="stroke:#000000;stroke-width:0.8;" x="249.411206" xlink:href="#md4bba01a08" y="307.584"/>
      </g>
     </g>
     <g id="text_3">
      <!-- 20 -->
      <g transform="translate(243.048706 322.182437)scale(0.1 -0.1)">
       <defs>
        <path d="M 19.1875 8.296875 
L 53.609375 8.296875 
L 53.609375 0 
L 7.328125 0 
L 7.328125 8.296875 
Q 12.9375 14.109375 22.625 23.890625 
Q 32.328125 33.6875 34.8125 36.53125 
Q 39.546875 41.84375 41.421875 45.53125 
Q 43.3125 49.21875 43.3125 52.78125 
Q 43.3125 58.59375 39.234375 62.25 
Q 35.15625 65.921875 28.609375 65.921875 
Q 23.96875 65.921875 18.8125 64.3125 
Q 13.671875 62.703125 7.8125 59.421875 
L 7.8125 69.390625 
Q 13.765625 71.78125 18.9375 73 
Q 24.125 74.21875 28.421875 74.21875 
Q 39.75 74.21875 46.484375 68.546875 
Q 53.21875 62.890625 53.21875 53.421875 
Q 53.21875 48.921875 51.53125 44.890625 
Q 49.859375 40.875 45.40625 35.40625 
Q 44.1875 33.984375 37.640625 27.21875 
Q 31.109375 20.453125 19.1875 8.296875 
z
" id="DejaVuSans-50"/>
       </defs>
       <use xlink:href="#DejaVuSans-50"/>
       <use x="63.623047" xlink:href="#DejaVuSans-48"/>
      </g>
     </g>
    </g>
    <g id="xtick_4">
     <g id="line2d_4">
      <g>
       <use style="stroke:#000000;stroke-width:0.8;" x="315.667236" xlink:href="#md4bba01a08" y="307.584"/>
      </g>
     </g>
     <g id="text_4">
      <!-- 25 -->
      <g transform="translate(309.304736 322.182437)scale(0.1 -0.1)">
       <use xlink:href="#DejaVuSans-50"/>
       <use x="63.623047" xlink:href="#DejaVuSans-53"/>
      </g>
     </g>
    </g>
    <g id="xtick_5">
     <g id="line2d_5">
      <g>
       <use style="stroke:#000000;stroke-width:0.8;" x="381.923265" xlink:href="#md4bba01a08" y="307.584"/>
      </g>
     </g>
     <g id="text_5">
      <!-- 30 -->
      <g transform="translate(375.560765 322.182437)scale(0.1 -0.1)">
       <defs>
        <path d="M 40.578125 39.3125 
Q 47.65625 37.796875 51.625 33 
Q 55.609375 28.21875 55.609375 21.1875 
Q 55.609375 10.40625 48.1875 4.484375 
Q 40.765625 -1.421875 27.09375 -1.421875 
Q 22.515625 -1.421875 17.65625 -0.515625 
Q 12.796875 0.390625 7.625 2.203125 
L 7.625 11.71875 
Q 11.71875 9.328125 16.59375 8.109375 
Q 21.484375 6.890625 26.8125 6.890625 
Q 36.078125 6.890625 40.9375 10.546875 
Q 45.796875 14.203125 45.796875 21.1875 
Q 45.796875 27.640625 41.28125 31.265625 
Q 36.765625 34.90625 28.71875 34.90625 
L 20.21875 34.90625 
L 20.21875 43.015625 
L 29.109375 43.015625 
Q 36.375 43.015625 40.234375 45.921875 
Q 44.09375 48.828125 44.09375 54.296875 
Q 44.09375 59.90625 40.109375 62.90625 
Q 36.140625 65.921875 28.71875 65.921875 
Q 24.65625 65.921875 20.015625 65.03125 
Q 15.375 64.15625 9.8125 62.3125 
L 9.8125 71.09375 
Q 15.4375 72.65625 20.34375 73.4375 
Q 25.25 74.21875 29.59375 74.21875 
Q 40.828125 74.21875 47.359375 69.109375 
Q 53.90625 64.015625 53.90625 55.328125 
Q 53.90625 49.265625 50.4375 45.09375 
Q 46.96875 40.921875 40.578125 39.3125 
z
" id="DejaVuSans-51"/>
       </defs>
       <use xlink:href="#DejaVuSans-51"/>
       <use x="63.623047" xlink:href="#DejaVuSans-48"/>
      </g>
     </g>
    </g>
    <g id="text_6">
     <!-- volume [Å$^3$] -->
     <g transform="translate(206.31 336.882437)scale(0.1 -0.1)">
      <defs>
       <path d="M 2.984375 54.6875 
L 12.5 54.6875 
L 29.59375 8.796875 
L 46.6875 54.6875 
L 56.203125 54.6875 
L 35.6875 0 
L 23.484375 0 
z
" id="DejaVuSans-118"/>
       <path d="M 30.609375 48.390625 
Q 23.390625 48.390625 19.1875 42.75 
Q 14.984375 37.109375 14.984375 27.296875 
Q 14.984375 17.484375 19.15625 11.84375 
Q 23.34375 6.203125 30.609375 6.203125 
Q 37.796875 6.203125 41.984375 11.859375 
Q 46.1875 17.53125 46.1875 27.296875 
Q 46.1875 37.015625 41.984375 42.703125 
Q 37.796875 48.390625 30.609375 48.390625 
z
M 30.609375 56 
Q 42.328125 56 49.015625 48.375 
Q 55.71875 40.765625 55.71875 27.296875 
Q 55.71875 13.875 49.015625 6.21875 
Q 42.328125 -1.421875 30.609375 -1.421875 
Q 18.84375 -1.421875 12.171875 6.21875 
Q 5.515625 13.875 5.515625 27.296875 
Q 5.515625 40.765625 12.171875 48.375 
Q 18.84375 56 30.609375 56 
z
" id="DejaVuSans-111"/>
       <path d="M 9.421875 75.984375 
L 18.40625 75.984375 
L 18.40625 0 
L 9.421875 0 
z
" id="DejaVuSans-108"/>
       <path d="M 8.5 21.578125 
L 8.5 54.6875 
L 17.484375 54.6875 
L 17.484375 21.921875 
Q 17.484375 14.15625 20.5 10.265625 
Q 23.53125 6.390625 29.59375 6.390625 
Q 36.859375 6.390625 41.078125 11.03125 
Q 45.3125 15.671875 45.3125 23.6875 
L 45.3125 54.6875 
L 54.296875 54.6875 
L 54.296875 0 
L 45.3125 0 
L 45.3125 8.40625 
Q 42.046875 3.421875 37.71875 1 
Q 33.40625 -1.421875 27.6875 -1.421875 
Q 18.265625 -1.421875 13.375 4.4375 
Q 8.5 10.296875 8.5 21.578125 
z
M 31.109375 56 
z
" id="DejaVuSans-117"/>
       <path d="M 52 44.1875 
Q 55.375 50.25 60.0625 53.125 
Q 64.75 56 71.09375 56 
Q 79.640625 56 84.28125 50.015625 
Q 88.921875 44.046875 88.921875 33.015625 
L 88.921875 0 
L 79.890625 0 
L 79.890625 32.71875 
Q 79.890625 40.578125 77.09375 44.375 
Q 74.3125 48.1875 68.609375 48.1875 
Q 61.625 48.1875 57.5625 43.546875 
Q 53.515625 38.921875 53.515625 30.90625 
L 53.515625 0 
L 44.484375 0 
L 44.484375 32.71875 
Q 44.484375 40.625 41.703125 44.40625 
Q 38.921875 48.1875 33.109375 48.1875 
Q 26.21875 48.1875 22.15625 43.53125 
Q 18.109375 38.875 18.109375 30.90625 
L 18.109375 0 
L 9.078125 0 
L 9.078125 54.6875 
L 18.109375 54.6875 
L 18.109375 46.1875 
Q 21.1875 51.21875 25.484375 53.609375 
Q 29.78125 56 35.6875 56 
Q 41.65625 56 45.828125 52.96875 
Q 50 49.953125 52 44.1875 
z
" id="DejaVuSans-109"/>
       <path d="M 56.203125 29.59375 
L 56.203125 25.203125 
L 14.890625 25.203125 
Q 15.484375 15.921875 20.484375 11.0625 
Q 25.484375 6.203125 34.421875 6.203125 
Q 39.59375 6.203125 44.453125 7.46875 
Q 49.3125 8.734375 54.109375 11.28125 
L 54.109375 2.78125 
Q 49.265625 0.734375 44.1875 -0.34375 
Q 39.109375 -1.421875 33.890625 -1.421875 
Q 20.796875 -1.421875 13.15625 6.1875 
Q 5.515625 13.8125 5.515625 26.8125 
Q 5.515625 40.234375 12.765625 48.109375 
Q 20.015625 56 32.328125 56 
Q 43.359375 56 49.78125 48.890625 
Q 56.203125 41.796875 56.203125 29.59375 
z
M 47.21875 32.234375 
Q 47.125 39.59375 43.09375 43.984375 
Q 39.0625 48.390625 32.421875 48.390625 
Q 24.90625 48.390625 20.390625 44.140625 
Q 15.875 39.890625 15.1875 32.171875 
z
" id="DejaVuSans-101"/>
       <path id="DejaVuSans-32"/>
       <path d="M 8.59375 75.984375 
L 29.296875 75.984375 
L 29.296875 69 
L 17.578125 69 
L 17.578125 -6.203125 
L 29.296875 -6.203125 
L 29.296875 -13.1875 
L 8.59375 -13.1875 
z
" id="DejaVuSans-91"/>
       <path d="M 41.609375 79.390625 
Q 41.609375 82.46875 39.421875 84.640625 
Q 37.25 86.8125 34.1875 86.8125 
Q 31.0625 86.8125 28.9375 84.6875 
Q 26.8125 82.5625 26.8125 79.390625 
Q 26.8125 76.3125 28.953125 74.15625 
Q 31.109375 72.015625 34.1875 72.015625 
Q 37.25 72.015625 39.421875 74.15625 
Q 41.609375 76.3125 41.609375 79.390625 
z
M 34.1875 63.1875 
L 20.90625 26.90625 
L 47.515625 26.90625 
z
M 26.8125 68.21875 
Q 23.828125 70.21875 22.3125 73.015625 
Q 20.796875 75.828125 20.796875 79.390625 
Q 20.796875 85.015625 24.671875 88.921875 
Q 28.5625 92.828125 34.1875 92.828125 
Q 39.75 92.828125 43.671875 88.890625 
Q 47.609375 84.96875 47.609375 79.390625 
Q 47.609375 75.984375 46.0625 73.09375 
Q 44.53125 70.21875 41.609375 68.21875 
L 67.578125 0 
L 57.328125 0 
L 50.6875 18.703125 
L 17.828125 18.703125 
L 11.1875 0 
L 0.78125 0 
z
" id="DejaVuSans-197"/>
       <path d="M 30.421875 75.984375 
L 30.421875 -13.1875 
L 9.71875 -13.1875 
L 9.71875 -6.203125 
L 21.390625 -6.203125 
L 21.390625 69 
L 9.71875 69 
L 9.71875 75.984375 
z
" id="DejaVuSans-93"/>
      </defs>
      <use transform="translate(0 0.171875)" xlink:href="#DejaVuSans-118"/>
      <use transform="translate(59.179688 0.171875)" xlink:href="#DejaVuSans-111"/>
      <use transform="translate(120.361328 0.171875)" xlink:href="#DejaVuSans-108"/>
      <use transform="translate(148.144531 0.171875)" xlink:href="#DejaVuSans-117"/>
      <use transform="translate(211.523438 0.171875)" xlink:href="#DejaVuSans-109"/>
      <use transform="translate(308.935547 0.171875)" xlink:href="#DejaVuSans-101"/>
      <use transform="translate(370.458984 0.171875)" xlink:href="#DejaVuSans-32"/>
      <use transform="translate(402.246094 0.171875)" xlink:href="#DejaVuSans-91"/>
      <use transform="translate(441.259766 0.171875)" xlink:href="#DejaVuSans-197"/>
      <use transform="translate(510.625 38.453125)scale(0.7)" xlink:href="#DejaVuSans-51"/>
      <use transform="translate(557.895508 0.171875)" xlink:href="#DejaVuSans-93"/>
     </g>
    </g>
   </g>
   <g id="matplotlib.axis_2">
    <g id="ytick_1">
     <g id="line2d_6">
      <defs>
       <path d="M 0 0 
L -3.5 0 
" id="m54847679b8" style="stroke:#000000;stroke-width:0.8;"/>
      </defs>
      <g>
       <use style="stroke:#000000;stroke-width:0.8;" x="57.6" xlink:href="#m54847679b8" y="305.639675"/>
      </g>
     </g>
     <g id="text_7">
      <!-- −5 -->
      <g transform="translate(35.857813 309.438894)scale(0.1 -0.1)">
       <defs>
        <path d="M 10.59375 35.5 
L 73.1875 35.5 
L 73.1875 27.203125 
L 10.59375 27.203125 
z
" id="DejaVuSans-8722"/>
       </defs>
       <use xlink:href="#DejaVuSans-8722"/>
       <use x="83.789062" xlink:href="#DejaVuSans-53"/>
      </g>
     </g>
    </g>
    <g id="ytick_2">
     <g id="line2d_7">
      <g>
       <use style="stroke:#000000;stroke-width:0.8;" x="57.6" xlink:href="#m54847679b8" y="260.112938"/>
      </g>
     </g>
     <g id="text_8">
      <!-- 0 -->
      <g transform="translate(44.2375 263.912157)scale(0.1 -0.1)">
       <use xlink:href="#DejaVuSans-48"/>
      </g>
     </g>
    </g>
    <g id="ytick_3">
     <g id="line2d_8">
      <g>
       <use style="stroke:#000000;stroke-width:0.8;" x="57.6" xlink:href="#m54847679b8" y="214.586201"/>
      </g>
     </g>
     <g id="text_9">
      <!-- 5 -->
      <g transform="translate(44.2375 218.38542)scale(0.1 -0.1)">
       <use xlink:href="#DejaVuSans-53"/>
      </g>
     </g>
    </g>
    <g id="ytick_4">
     <g id="line2d_9">
      <g>
       <use style="stroke:#000000;stroke-width:0.8;" x="57.6" xlink:href="#m54847679b8" y="169.059464"/>
      </g>
     </g>
     <g id="text_10">
      <!-- 10 -->
      <g transform="translate(37.875 172.858683)scale(0.1 -0.1)">
       <use xlink:href="#DejaVuSans-49"/>
       <use x="63.623047" xlink:href="#DejaVuSans-48"/>
      </g>
     </g>
    </g>
    <g id="ytick_5">
     <g id="line2d_10">
      <g>
       <use style="stroke:#000000;stroke-width:0.8;" x="57.6" xlink:href="#m54847679b8" y="123.532727"/>
      </g>
     </g>
     <g id="text_11">
      <!-- 15 -->
      <g transform="translate(37.875 127.331946)scale(0.1 -0.1)">
       <use xlink:href="#DejaVuSans-49"/>
       <use x="63.623047" xlink:href="#DejaVuSans-53"/>
      </g>
     </g>
    </g>
    <g id="ytick_6">
     <g id="line2d_11">
      <g>
       <use style="stroke:#000000;stroke-width:0.8;" x="57.6" xlink:href="#m54847679b8" y="78.00599"/>
      </g>
     </g>
     <g id="text_12">
      <!-- 20 -->
      <g transform="translate(37.875 81.805209)scale(0.1 -0.1)">
       <use xlink:href="#DejaVuSans-50"/>
       <use x="63.623047" xlink:href="#DejaVuSans-48"/>
      </g>
     </g>
    </g>
    <g id="text_13">
     <!-- energy [eV] -->
     <g transform="translate(29.778125 203.938938)rotate(-90)scale(0.1 -0.1)">
      <defs>
       <path d="M 54.890625 33.015625 
L 54.890625 0 
L 45.90625 0 
L 45.90625 32.71875 
Q 45.90625 40.484375 42.875 44.328125 
Q 39.84375 48.1875 33.796875 48.1875 
Q 26.515625 48.1875 22.3125 43.546875 
Q 18.109375 38.921875 18.109375 30.90625 
L 18.109375 0 
L 9.078125 0 
L 9.078125 54.6875 
L 18.109375 54.6875 
L 18.109375 46.1875 
Q 21.34375 51.125 25.703125 53.5625 
Q 30.078125 56 35.796875 56 
Q 45.21875 56 50.046875 50.171875 
Q 54.890625 44.34375 54.890625 33.015625 
z
" id="DejaVuSans-110"/>
       <path d="M 41.109375 46.296875 
Q 39.59375 47.171875 37.8125 47.578125 
Q 36.03125 48 33.890625 48 
Q 26.265625 48 22.1875 43.046875 
Q 18.109375 38.09375 18.109375 28.8125 
L 18.109375 0 
L 9.078125 0 
L 9.078125 54.6875 
L 18.109375 54.6875 
L 18.109375 46.1875 
Q 20.953125 51.171875 25.484375 53.578125 
Q 30.03125 56 36.53125 56 
Q 37.453125 56 38.578125 55.875 
Q 39.703125 55.765625 41.0625 55.515625 
z
" id="DejaVuSans-114"/>
       <path d="M 45.40625 27.984375 
Q 45.40625 37.75 41.375 43.109375 
Q 37.359375 48.484375 30.078125 48.484375 
Q 22.859375 48.484375 18.828125 43.109375 
Q 14.796875 37.75 14.796875 27.984375 
Q 14.796875 18.265625 18.828125 12.890625 
Q 22.859375 7.515625 30.078125 7.515625 
Q 37.359375 7.515625 41.375 12.890625 
Q 45.40625 18.265625 45.40625 27.984375 
z
M 54.390625 6.78125 
Q 54.390625 -7.171875 48.1875 -13.984375 
Q 42 -20.796875 29.203125 -20.796875 
Q 24.46875 -20.796875 20.265625 -20.09375 
Q 16.0625 -19.390625 12.109375 -17.921875 
L 12.109375 -9.1875 
Q 16.0625 -11.328125 19.921875 -12.34375 
Q 23.78125 -13.375 27.78125 -13.375 
Q 36.625 -13.375 41.015625 -8.765625 
Q 45.40625 -4.15625 45.40625 5.171875 
L 45.40625 9.625 
Q 42.625 4.78125 38.28125 2.390625 
Q 33.9375 0 27.875 0 
Q 17.828125 0 11.671875 7.65625 
Q 5.515625 15.328125 5.515625 27.984375 
Q 5.515625 40.671875 11.671875 48.328125 
Q 17.828125 56 27.875 56 
Q 33.9375 56 38.28125 53.609375 
Q 42.625 51.21875 45.40625 46.390625 
L 45.40625 54.6875 
L 54.390625 54.6875 
z
" id="DejaVuSans-103"/>
       <path d="M 32.171875 -5.078125 
Q 28.375 -14.84375 24.75 -17.8125 
Q 21.140625 -20.796875 15.09375 -20.796875 
L 7.90625 -20.796875 
L 7.90625 -13.28125 
L 13.1875 -13.28125 
Q 16.890625 -13.28125 18.9375 -11.515625 
Q 21 -9.765625 23.484375 -3.21875 
L 25.09375 0.875 
L 2.984375 54.6875 
L 12.5 54.6875 
L 29.59375 11.921875 
L 46.6875 54.6875 
L 56.203125 54.6875 
z
" id="DejaVuSans-121"/>
       <path d="M 28.609375 0 
L 0.78125 72.90625 
L 11.078125 72.90625 
L 34.1875 11.53125 
L 57.328125 72.90625 
L 67.578125 72.90625 
L 39.796875 0 
z
" id="DejaVuSans-86"/>
      </defs>
      <use xlink:href="#DejaVuSans-101"/>
      <use x="61.523438" xlink:href="#DejaVuSans-110"/>
      <use x="124.902344" xlink:href="#DejaVuSans-101"/>
      <use x="186.425781" xlink:href="#DejaVuSans-114"/>
      <use x="225.789062" xlink:href="#DejaVuSans-103"/>
      <use x="289.265625" xlink:href="#DejaVuSans-121"/>
      <use x="348.445312" xlink:href="#DejaVuSans-32"/>
      <use x="380.232422" xlink:href="#DejaVuSans-91"/>
      <use x="419.246094" xlink:href="#DejaVuSans-101"/>
      <use x="480.769531" xlink:href="#DejaVuSans-86"/>
      <use x="549.177734" xlink:href="#DejaVuSans-93"/>
     </g>
    </g>
   </g>
   <g id="line2d_12">
    <path clip-path="url(#pa7d1a789c3)" d="M 73.832727 55.24572 
L 77.112066 82.485782 
L 80.391405 106.543891 
L 83.670744 127.835274 
L 86.950083 146.712454 
L 90.229421 163.476123 
L 93.50876 178.383891 
L 96.788099 191.657364 
L 100.067438 203.487909 
L 103.346777 214.041375 
L 106.626116 223.461988 
L 109.905455 231.875566 
L 113.184793 239.392201 
L 116.464132 246.108498 
L 119.743471 252.109455 
L 123.02281 257.470046 
L 126.302149 262.256564 
L 129.581488 266.527757 
L 132.860826 270.3358 
L 136.140165 273.727124 
L 139.419504 276.743132 
L 142.698843 279.420805 
L 145.978182 281.793239 
L 149.257521 283.890096 
L 152.53686 285.738007 
L 155.816198 287.360914 
L 159.095537 288.780374 
L 162.374876 290.015822 
L 165.654215 291.084801 
L 168.933554 292.003169 
L 172.212893 292.785273 
L 175.492231 293.44411 
L 178.77157 293.991466 
L 182.050909 294.438036 
L 185.330248 294.793538 
L 188.609587 295.066808 
L 191.888926 295.265885 
L 195.168264 295.398093 
L 198.447603 295.470103 
L 201.726942 295.488 
L 205.006281 295.457337 
L 208.28562 295.383182 
L 211.564959 295.270165 
L 214.844298 295.122518 
L 218.123636 294.944108 
L 221.402975 294.738474 
L 224.682314 294.508852 
L 227.961653 294.258202 
L 231.240992 293.989236 
L 234.520331 293.704434 
L 237.799669 293.406067 
L 241.079008 293.096216 
L 244.358347 292.776783 
L 247.637686 292.449511 
L 250.917025 292.115994 
L 254.196364 291.777693 
L 257.475702 291.435942 
L 260.755041 291.091961 
L 264.03438 290.746868 
L 267.313719 290.40168 
L 270.593058 290.057329 
L 273.872397 289.714664 
L 277.151736 289.374457 
L 280.431074 289.037415 
L 283.710413 288.704177 
L 286.989752 288.375325 
L 290.269091 288.051387 
L 293.54843 287.732842 
L 296.827769 287.42012 
L 300.107107 287.113612 
L 303.386446 286.813667 
L 306.665785 286.5206 
L 309.945124 286.234691 
L 313.224463 285.956189 
L 316.503802 285.685318 
L 319.78314 285.422271 
L 323.062479 285.167221 
L 326.341818 284.920316 
L 329.621157 284.681684 
L 332.900496 284.451434 
L 336.179835 284.229659 
L 339.459174 284.016435 
L 342.738512 283.811821 
L 346.017851 283.615865 
L 349.29719 283.428601 
L 352.576529 283.250053 
L 355.855868 283.080233 
L 359.135207 282.919143 
L 362.414545 282.766776 
L 365.693884 282.623118 
L 368.973223 282.488145 
L 372.252562 282.36183 
L 375.531901 282.244135 
L 378.81124 282.135019 
L 382.090579 282.034436 
L 385.369917 281.942333 
L 388.649256 281.858654 
L 391.928595 281.783339 
L 395.207934 281.716325 
L 398.487273 281.657544 
" style="fill:none;stroke:#d62728;stroke-linecap:square;stroke-width:1.5;"/>
   </g>
   <g id="line2d_13">
    <defs>
     <path d="M 0 3 
C 0.795609 3 1.55874 2.683901 2.12132 2.12132 
C 2.683901 1.55874 3 0.795609 3 0 
C 3 -0.795609 2.683901 -1.55874 2.12132 -2.12132 
C 1.55874 -2.683901 0.795609 -3 0 -3 
C -0.795609 -3 -1.55874 -2.683901 -2.12132 -2.12132 
C -2.683901 -1.55874 -3 -0.795609 -3 0 
C -3 0.795609 -2.683901 1.55874 -2.12132 2.12132 
C -1.55874 2.683901 -0.795609 3 0 3 
z
" id="m1cff38039a" style="stroke:#1f77b4;"/>
    </defs>
    <g clip-path="url(#pa7d1a789c3)">
     <use style="fill:#1f77b4;stroke:#1f77b4;" x="73.832727" xlink:href="#m1cff38039a" y="53.568"/>
     <use style="fill:#1f77b4;stroke:#1f77b4;" x="83.078756" xlink:href="#m1cff38039a" y="124.943306"/>
     <use style="fill:#1f77b4;stroke:#1f77b4;" x="92.940966" xlink:href="#m1cff38039a" y="177.373729"/>
     <use style="fill:#1f77b4;stroke:#1f77b4;" x="103.439234" xlink:href="#m1cff38039a" y="215.523986"/>
     <use style="fill:#1f77b4;stroke:#1f77b4;" x="114.593437" xlink:href="#m1cff38039a" y="242.934718"/>
     <use style="fill:#1f77b4;stroke:#1f77b4;" x="126.423451" xlink:href="#m1cff38039a" y="262.293661"/>
     <use style="fill:#1f77b4;stroke:#1f77b4;" x="138.949153" xlink:href="#m1cff38039a" y="275.640449"/>
     <use style="fill:#1f77b4;stroke:#1f77b4;" x="152.190421" xlink:href="#m1cff38039a" y="284.521713"/>
     <use style="fill:#1f77b4;stroke:#1f77b4;" x="166.16713" xlink:href="#m1cff38039a" y="290.108793"/>
     <use style="fill:#1f77b4;stroke:#1f77b4;" x="180.899158" xlink:href="#m1cff38039a" y="293.287229"/>
     <use style="fill:#1f77b4;stroke:#1f77b4;" x="196.406382" xlink:href="#m1cff38039a" y="294.724908"/>
     <use style="fill:#1f77b4;stroke:#1f77b4;" x="212.708678" xlink:href="#m1cff38039a" y="294.924001"/>
     <use style="fill:#1f77b4;stroke:#1f77b4;" x="229.825924" xlink:href="#m1cff38039a" y="294.260586"/>
     <use style="fill:#1f77b4;stroke:#1f77b4;" x="247.777995" xlink:href="#m1cff38039a" y="293.01489"/>
     <use style="fill:#1f77b4;stroke:#1f77b4;" x="266.584769" xlink:href="#m1cff38039a" y="291.39438"/>
     <use style="fill:#1f77b4;stroke:#1f77b4;" x="286.266122" xlink:href="#m1cff38039a" y="289.551393"/>
     <use style="fill:#1f77b4;stroke:#1f77b4;" x="306.841932" xlink:href="#m1cff38039a" y="287.596595"/>
     <use style="fill:#1f77b4;stroke:#1f77b4;" x="328.332076" xlink:href="#m1cff38039a" y="285.609244"/>
     <use style="fill:#1f77b4;stroke:#1f77b4;" x="350.756429" xlink:href="#m1cff38039a" y="283.645024"/>
     <use style="fill:#1f77b4;stroke:#1f77b4;" x="374.134869" xlink:href="#m1cff38039a" y="281.741999"/>
     <use style="fill:#1f77b4;stroke:#1f77b4;" x="398.487273" xlink:href="#m1cff38039a" y="279.925153"/>
    </g>
   </g>
   <g id="line2d_14">
    <path clip-path="url(#pa7d1a789c3)" d="M 73.832727 55.24572 
L 77.112066 82.485782 
L 80.391405 106.543891 
L 83.670744 127.835274 
L 86.950083 146.712454 
L 90.229421 163.476123 
L 93.50876 178.383891 
L 96.788099 191.657364 
L 100.067438 203.487909 
L 103.346777 214.041375 
L 106.626116 223.461988 
L 109.905455 231.875566 
L 113.184793 239.392201 
L 116.464132 246.108498 
L 119.743471 252.109455 
L 123.02281 257.470046 
L 126.302149 262.256564 
L 129.581488 266.527757 
L 132.860826 270.3358 
L 136.140165 273.727124 
L 139.419504 276.743132 
L 142.698843 279.420805 
L 145.978182 281.793239 
L 149.257521 283.890096 
L 152.53686 285.738007 
L 155.816198 287.360914 
L 159.095537 288.780374 
L 162.374876 290.015822 
L 165.654215 291.084801 
L 168.933554 292.003169 
L 172.212893 292.785273 
L 175.492231 293.44411 
L 178.77157 293.991466 
L 182.050909 294.438036 
L 185.330248 294.793538 
L 188.609587 295.066808 
L 191.888926 295.265885 
L 195.168264 295.398093 
L 198.447603 295.470103 
L 201.726942 295.488 
L 205.006281 295.457337 
L 208.28562 295.383182 
L 211.564959 295.270165 
L 214.844298 295.122518 
L 218.123636 294.944108 
L 221.402975 294.738474 
L 224.682314 294.508852 
L 227.961653 294.258202 
L 231.240992 293.989236 
L 234.520331 293.704434 
L 237.799669 293.406067 
L 241.079008 293.096216 
L 244.358347 292.776783 
L 247.637686 292.449511 
L 250.917025 292.115994 
L 254.196364 291.777693 
L 257.475702 291.435942 
L 260.755041 291.091961 
L 264.03438 290.746868 
L 267.313719 290.40168 
L 270.593058 290.057329 
L 273.872397 289.714664 
L 277.151736 289.374457 
L 280.431074 289.037415 
L 283.710413 288.704177 
L 286.989752 288.375325 
L 290.269091 288.051387 
L 293.54843 287.732842 
L 296.827769 287.42012 
L 300.107107 287.113612 
L 303.386446 286.813667 
L 306.665785 286.5206 
L 309.945124 286.234691 
L 313.224463 285.956189 
L 316.503802 285.685318 
L 319.78314 285.422271 
L 323.062479 285.167221 
L 326.341818 284.920316 
L 329.621157 284.681684 
L 332.900496 284.451434 
L 336.179835 284.229659 
L 339.459174 284.016435 
L 342.738512 283.811821 
L 346.017851 283.615865 
L 349.29719 283.428601 
L 352.576529 283.250053 
L 355.855868 283.080233 
L 359.135207 282.919143 
L 362.414545 282.766776 
L 365.693884 282.623118 
L 368.973223 282.488145 
L 372.252562 282.36183 
L 375.531901 282.244135 
L 378.81124 282.135019 
L 382.090579 282.034436 
L 385.369917 281.942333 
L 388.649256 281.858654 
L 391.928595 281.783339 
L 395.207934 281.716325 
L 398.487273 281.657544 
" style="fill:none;stroke:#d62728;stroke-linecap:square;stroke-width:1.5;"/>
   </g>
   <g id="line2d_15">
    <g clip-path="url(#pa7d1a789c3)">
     <use style="fill:#1f77b4;stroke:#1f77b4;" x="73.832727" xlink:href="#m1cff38039a" y="53.568"/>
     <use style="fill:#1f77b4;stroke:#1f77b4;" x="83.078756" xlink:href="#m1cff38039a" y="124.943306"/>
     <use style="fill:#1f77b4;stroke:#1f77b4;" x="92.940966" xlink:href="#m1cff38039a" y="177.373729"/>
     <use style="fill:#1f77b4;stroke:#1f77b4;" x="103.439234" xlink:href="#m1cff38039a" y="215.523986"/>
     <use style="fill:#1f77b4;stroke:#1f77b4;" x="114.593437" xlink:href="#m1cff38039a" y="242.934718"/>
     <use style="fill:#1f77b4;stroke:#1f77b4;" x="126.423451" xlink:href="#m1cff38039a" y="262.293661"/>
     <use style="fill:#1f77b4;stroke:#1f77b4;" x="138.949153" xlink:href="#m1cff38039a" y="275.640449"/>
     <use style="fill:#1f77b4;stroke:#1f77b4;" x="152.190421" xlink:href="#m1cff38039a" y="284.521713"/>
     <use style="fill:#1f77b4;stroke:#1f77b4;" x="166.16713" xlink:href="#m1cff38039a" y="290.108793"/>
     <use style="fill:#1f77b4;stroke:#1f77b4;" x="180.899158" xlink:href="#m1cff38039a" y="293.287229"/>
     <use style="fill:#1f77b4;stroke:#1f77b4;" x="196.406382" xlink:href="#m1cff38039a" y="294.724908"/>
     <use style="fill:#1f77b4;stroke:#1f77b4;" x="212.708678" xlink:href="#m1cff38039a" y="294.924001"/>
     <use style="fill:#1f77b4;stroke:#1f77b4;" x="229.825924" xlink:href="#m1cff38039a" y="294.260586"/>
     <use style="fill:#1f77b4;stroke:#1f77b4;" x="247.777995" xlink:href="#m1cff38039a" y="293.01489"/>
     <use style="fill:#1f77b4;stroke:#1f77b4;" x="266.584769" xlink:href="#m1cff38039a" y="291.39438"/>
     <use style="fill:#1f77b4;stroke:#1f77b4;" x="286.266122" xlink:href="#m1cff38039a" y="289.551393"/>
     <use style="fill:#1f77b4;stroke:#1f77b4;" x="306.841932" xlink:href="#m1cff38039a" y="287.596595"/>
     <use style="fill:#1f77b4;stroke:#1f77b4;" x="328.332076" xlink:href="#m1cff38039a" y="285.609244"/>
     <use style="fill:#1f77b4;stroke:#1f77b4;" x="350.756429" xlink:href="#m1cff38039a" y="283.645024"/>
     <use style="fill:#1f77b4;stroke:#1f77b4;" x="374.134869" xlink:href="#m1cff38039a" y="281.741999"/>
     <use style="fill:#1f77b4;stroke:#1f77b4;" x="398.487273" xlink:href="#m1cff38039a" y="279.925153"/>
    </g>
   </g>
   <g id="patch_3">
    <path d="M 57.6 307.584 
L 57.6 41.472 
" style="fill:none;stroke:#000000;stroke-linecap:square;stroke-linejoin:miter;stroke-width:0.8;"/>
   </g>
   <g id="patch_4">
    <path d="M 414.72 307.584 
L 414.72 41.472 
" style="fill:none;stroke:#000000;stroke-linecap:square;stroke-linejoin:miter;stroke-width:0.8;"/>
   </g>
   <g id="patch_5">
    <path d="M 57.6 307.584 
L 414.72 307.584 
" style="fill:none;stroke:#000000;stroke-linecap:square;stroke-linejoin:miter;stroke-width:0.8;"/>
   </g>
   <g id="patch_6">
    <path d="M 57.6 41.472 
L 414.72 41.472 
" style="fill:none;stroke:#000000;stroke-linecap:square;stroke-linejoin:miter;stroke-width:0.8;"/>
   </g>
   <g id="text_14">
    <!-- sj: E: -3.885 eV, V: 16.365 Å$^3$, B: 231.858 GPa -->
    <g transform="translate(98.7 35.472)scale(0.12 -0.12)">
     <defs>
      <path d="M 44.28125 53.078125 
L 44.28125 44.578125 
Q 40.484375 46.53125 36.375 47.5 
Q 32.28125 48.484375 27.875 48.484375 
Q 21.1875 48.484375 17.84375 46.4375 
Q 14.5 44.390625 14.5 40.28125 
Q 14.5 37.15625 16.890625 35.375 
Q 19.28125 33.59375 26.515625 31.984375 
L 29.59375 31.296875 
Q 39.15625 29.25 43.1875 25.515625 
Q 47.21875 21.78125 47.21875 15.09375 
Q 47.21875 7.46875 41.1875 3.015625 
Q 35.15625 -1.421875 24.609375 -1.421875 
Q 20.21875 -1.421875 15.453125 -0.5625 
Q 10.6875 0.296875 5.421875 2 
L 5.421875 11.28125 
Q 10.40625 8.6875 15.234375 7.390625 
Q 20.0625 6.109375 24.8125 6.109375 
Q 31.15625 6.109375 34.5625 8.28125 
Q 37.984375 10.453125 37.984375 14.40625 
Q 37.984375 18.0625 35.515625 20.015625 
Q 33.0625 21.96875 24.703125 23.78125 
L 21.578125 24.515625 
Q 13.234375 26.265625 9.515625 29.90625 
Q 5.8125 33.546875 5.8125 39.890625 
Q 5.8125 47.609375 11.28125 51.796875 
Q 16.75 56 26.8125 56 
Q 31.78125 56 36.171875 55.265625 
Q 40.578125 54.546875 44.28125 53.078125 
z
" id="DejaVuSans-115"/>
      <path d="M 9.421875 54.6875 
L 18.40625 54.6875 
L 18.40625 -0.984375 
Q 18.40625 -11.421875 14.421875 -16.109375 
Q 10.453125 -20.796875 1.609375 -20.796875 
L -1.8125 -20.796875 
L -1.8125 -13.1875 
L 0.59375 -13.1875 
Q 5.71875 -13.1875 7.5625 -10.8125 
Q 9.421875 -8.453125 9.421875 -0.984375 
z
M 9.421875 75.984375 
L 18.40625 75.984375 
L 18.40625 64.59375 
L 9.421875 64.59375 
z
" id="DejaVuSans-106"/>
      <path d="M 11.71875 12.40625 
L 22.015625 12.40625 
L 22.015625 0 
L 11.71875 0 
z
M 11.71875 51.703125 
L 22.015625 51.703125 
L 22.015625 39.3125 
L 11.71875 39.3125 
z
" id="DejaVuSans-58"/>
      <path d="M 9.8125 72.90625 
L 55.90625 72.90625 
L 55.90625 64.59375 
L 19.671875 64.59375 
L 19.671875 43.015625 
L 54.390625 43.015625 
L 54.390625 34.71875 
L 19.671875 34.71875 
L 19.671875 8.296875 
L 56.78125 8.296875 
L 56.78125 0 
L 9.8125 0 
z
" id="DejaVuSans-69"/>
      <path d="M 4.890625 31.390625 
L 31.203125 31.390625 
L 31.203125 23.390625 
L 4.890625 23.390625 
z
" id="DejaVuSans-45"/>
      <path d="M 10.6875 12.40625 
L 21 12.40625 
L 21 0 
L 10.6875 0 
z
" id="DejaVuSans-46"/>
      <path d="M 31.78125 34.625 
Q 24.75 34.625 20.71875 30.859375 
Q 16.703125 27.09375 16.703125 20.515625 
Q 16.703125 13.921875 20.71875 10.15625 
Q 24.75 6.390625 31.78125 6.390625 
Q 38.8125 6.390625 42.859375 10.171875 
Q 46.921875 13.96875 46.921875 20.515625 
Q 46.921875 27.09375 42.890625 30.859375 
Q 38.875 34.625 31.78125 34.625 
z
M 21.921875 38.8125 
Q 15.578125 40.375 12.03125 44.71875 
Q 8.5 49.078125 8.5 55.328125 
Q 8.5 64.0625 14.71875 69.140625 
Q 20.953125 74.21875 31.78125 74.21875 
Q 42.671875 74.21875 48.875 69.140625 
Q 55.078125 64.0625 55.078125 55.328125 
Q 55.078125 49.078125 51.53125 44.71875 
Q 48 40.375 41.703125 38.8125 
Q 48.828125 37.15625 52.796875 32.3125 
Q 56.78125 27.484375 56.78125 20.515625 
Q 56.78125 9.90625 50.3125 4.234375 
Q 43.84375 -1.421875 31.78125 -1.421875 
Q 19.734375 -1.421875 13.25 4.234375 
Q 6.78125 9.90625 6.78125 20.515625 
Q 6.78125 27.484375 10.78125 32.3125 
Q 14.796875 37.15625 21.921875 38.8125 
z
M 18.3125 54.390625 
Q 18.3125 48.734375 21.84375 45.5625 
Q 25.390625 42.390625 31.78125 42.390625 
Q 38.140625 42.390625 41.71875 45.5625 
Q 45.3125 48.734375 45.3125 54.390625 
Q 45.3125 60.0625 41.71875 63.234375 
Q 38.140625 66.40625 31.78125 66.40625 
Q 25.390625 66.40625 21.84375 63.234375 
Q 18.3125 60.0625 18.3125 54.390625 
z
" id="DejaVuSans-56"/>
      <path d="M 11.71875 12.40625 
L 22.015625 12.40625 
L 22.015625 4 
L 14.015625 -11.625 
L 7.71875 -11.625 
L 11.71875 4 
z
" id="DejaVuSans-44"/>
      <path d="M 33.015625 40.375 
Q 26.375 40.375 22.484375 35.828125 
Q 18.609375 31.296875 18.609375 23.390625 
Q 18.609375 15.53125 22.484375 10.953125 
Q 26.375 6.390625 33.015625 6.390625 
Q 39.65625 6.390625 43.53125 10.953125 
Q 47.40625 15.53125 47.40625 23.390625 
Q 47.40625 31.296875 43.53125 35.828125 
Q 39.65625 40.375 33.015625 40.375 
z
M 52.59375 71.296875 
L 52.59375 62.3125 
Q 48.875 64.0625 45.09375 64.984375 
Q 41.3125 65.921875 37.59375 65.921875 
Q 27.828125 65.921875 22.671875 59.328125 
Q 17.53125 52.734375 16.796875 39.40625 
Q 19.671875 43.65625 24.015625 45.921875 
Q 28.375 48.1875 33.59375 48.1875 
Q 44.578125 48.1875 50.953125 41.515625 
Q 57.328125 34.859375 57.328125 23.390625 
Q 57.328125 12.15625 50.6875 5.359375 
Q 44.046875 -1.421875 33.015625 -1.421875 
Q 20.359375 -1.421875 13.671875 8.265625 
Q 6.984375 17.96875 6.984375 36.375 
Q 6.984375 53.65625 15.1875 63.9375 
Q 23.390625 74.21875 37.203125 74.21875 
Q 40.921875 74.21875 44.703125 73.484375 
Q 48.484375 72.75 52.59375 71.296875 
z
" id="DejaVuSans-54"/>
      <path d="M 19.671875 34.8125 
L 19.671875 8.109375 
L 35.5 8.109375 
Q 43.453125 8.109375 47.28125 11.40625 
Q 51.125 14.703125 51.125 21.484375 
Q 51.125 28.328125 47.28125 31.5625 
Q 43.453125 34.8125 35.5 34.8125 
z
M 19.671875 64.796875 
L 19.671875 42.828125 
L 34.28125 42.828125 
Q 41.5 42.828125 45.03125 45.53125 
Q 48.578125 48.25 48.578125 53.8125 
Q 48.578125 59.328125 45.03125 62.0625 
Q 41.5 64.796875 34.28125 64.796875 
z
M 9.8125 72.90625 
L 35.015625 72.90625 
Q 46.296875 72.90625 52.390625 68.21875 
Q 58.5 63.53125 58.5 54.890625 
Q 58.5 48.1875 55.375 44.234375 
Q 52.25 40.28125 46.1875 39.3125 
Q 53.46875 37.75 57.5 32.78125 
Q 61.53125 27.828125 61.53125 20.40625 
Q 61.53125 10.640625 54.890625 5.3125 
Q 48.25 0 35.984375 0 
L 9.8125 0 
z
" id="DejaVuSans-66"/>
      <path d="M 59.515625 10.40625 
L 59.515625 29.984375 
L 43.40625 29.984375 
L 43.40625 38.09375 
L 69.28125 38.09375 
L 69.28125 6.78125 
Q 63.578125 2.734375 56.6875 0.65625 
Q 49.8125 -1.421875 42 -1.421875 
Q 24.90625 -1.421875 15.25 8.5625 
Q 5.609375 18.5625 5.609375 36.375 
Q 5.609375 54.25 15.25 64.234375 
Q 24.90625 74.21875 42 74.21875 
Q 49.125 74.21875 55.546875 72.453125 
Q 61.96875 70.703125 67.390625 67.28125 
L 67.390625 56.78125 
Q 61.921875 61.421875 55.765625 63.765625 
Q 49.609375 66.109375 42.828125 66.109375 
Q 29.4375 66.109375 22.71875 58.640625 
Q 16.015625 51.171875 16.015625 36.375 
Q 16.015625 21.625 22.71875 14.15625 
Q 29.4375 6.6875 42.828125 6.6875 
Q 48.046875 6.6875 52.140625 7.59375 
Q 56.25 8.5 59.515625 10.40625 
z
" id="DejaVuSans-71"/>
      <path d="M 19.671875 64.796875 
L 19.671875 37.40625 
L 32.078125 37.40625 
Q 38.96875 37.40625 42.71875 40.96875 
Q 46.484375 44.53125 46.484375 51.125 
Q 46.484375 57.671875 42.71875 61.234375 
Q 38.96875 64.796875 32.078125 64.796875 
z
M 9.8125 72.90625 
L 32.078125 72.90625 
Q 44.34375 72.90625 50.609375 67.359375 
Q 56.890625 61.8125 56.890625 51.125 
Q 56.890625 40.328125 50.609375 34.8125 
Q 44.34375 29.296875 32.078125 29.296875 
L 19.671875 29.296875 
L 19.671875 0 
L 9.8125 0 
z
" id="DejaVuSans-80"/>
      <path d="M 34.28125 27.484375 
Q 23.390625 27.484375 19.1875 25 
Q 14.984375 22.515625 14.984375 16.5 
Q 14.984375 11.71875 18.140625 8.90625 
Q 21.296875 6.109375 26.703125 6.109375 
Q 34.1875 6.109375 38.703125 11.40625 
Q 43.21875 16.703125 43.21875 25.484375 
L 43.21875 27.484375 
z
M 52.203125 31.203125 
L 52.203125 0 
L 43.21875 0 
L 43.21875 8.296875 
Q 40.140625 3.328125 35.546875 0.953125 
Q 30.953125 -1.421875 24.3125 -1.421875 
Q 15.921875 -1.421875 10.953125 3.296875 
Q 6 8.015625 6 15.921875 
Q 6 25.140625 12.171875 29.828125 
Q 18.359375 34.515625 30.609375 34.515625 
L 43.21875 34.515625 
L 43.21875 35.40625 
Q 43.21875 41.609375 39.140625 45 
Q 35.0625 48.390625 27.6875 48.390625 
Q 23 48.390625 18.546875 47.265625 
Q 14.109375 46.140625 10.015625 43.890625 
L 10.015625 52.203125 
Q 14.9375 54.109375 19.578125 55.046875 
Q 24.21875 56 28.609375 56 
Q 40.484375 56 46.34375 49.84375 
Q 52.203125 43.703125 52.203125 31.203125 
z
" id="DejaVuSans-97"/>
     </defs>
     <use transform="translate(0 0.171875)" xlink:href="#DejaVuSans-115"/>
     <use transform="translate(52.099609 0.171875)" xlink:href="#DejaVuSans-106"/>
     <use transform="translate(79.882812 0.171875)" xlink:href="#DejaVuSans-58"/>
     <use transform="translate(113.574219 0.171875)" xlink:href="#DejaVuSans-32"/>
     <use transform="translate(145.361328 0.171875)" xlink:href="#DejaVuSans-69"/>
     <use transform="translate(208.544922 0.171875)" xlink:href="#DejaVuSans-58"/>
     <use transform="translate(242.236328 0.171875)" xlink:href="#DejaVuSans-32"/>
     <use transform="translate(274.023438 0.171875)" xlink:href="#DejaVuSans-45"/>
     <use transform="translate(310.107422 0.171875)" xlink:href="#DejaVuSans-51"/>
     <use transform="translate(373.730469 0.171875)" xlink:href="#DejaVuSans-46"/>
     <use transform="translate(402.892578 0.171875)" xlink:href="#DejaVuSans-56"/>
     <use transform="translate(466.515625 0.171875)" xlink:href="#DejaVuSans-56"/>
     <use transform="translate(530.138672 0.171875)" xlink:href="#DejaVuSans-53"/>
     <use transform="translate(593.761719 0.171875)" xlink:href="#DejaVuSans-32"/>
     <use transform="translate(625.548828 0.171875)" xlink:href="#DejaVuSans-101"/>
     <use transform="translate(687.072266 0.171875)" xlink:href="#DejaVuSans-86"/>
     <use transform="translate(755.480469 0.171875)" xlink:href="#DejaVuSans-44"/>
     <use transform="translate(787.267578 0.171875)" xlink:href="#DejaVuSans-32"/>
     <use transform="translate(819.054688 0.171875)" xlink:href="#DejaVuSans-86"/>
     <use transform="translate(887.462891 0.171875)" xlink:href="#DejaVuSans-58"/>
     <use transform="translate(921.154297 0.171875)" xlink:href="#DejaVuSans-32"/>
     <use transform="translate(952.941406 0.171875)" xlink:href="#DejaVuSans-49"/>
     <use transform="translate(1016.564453 0.171875)" xlink:href="#DejaVuSans-54"/>
     <use transform="translate(1080.1875 0.171875)" xlink:href="#DejaVuSans-46"/>
     <use transform="translate(1111.974609 0.171875)" xlink:href="#DejaVuSans-51"/>
     <use transform="translate(1175.597656 0.171875)" xlink:href="#DejaVuSans-54"/>
     <use transform="translate(1239.220703 0.171875)" xlink:href="#DejaVuSans-53"/>
     <use transform="translate(1302.84375 0.171875)" xlink:href="#DejaVuSans-32"/>
     <use transform="translate(1334.630859 0.171875)" xlink:href="#DejaVuSans-197"/>
     <use transform="translate(1403.996094 38.453125)scale(0.7)" xlink:href="#DejaVuSans-51"/>
     <use transform="translate(1451.266602 0.171875)" xlink:href="#DejaVuSans-44"/>
     <use transform="translate(1483.053711 0.171875)" xlink:href="#DejaVuSans-32"/>
     <use transform="translate(1514.84082 0.171875)" xlink:href="#DejaVuSans-66"/>
     <use transform="translate(1583.444336 0.171875)" xlink:href="#DejaVuSans-58"/>
     <use transform="translate(1617.135742 0.171875)" xlink:href="#DejaVuSans-32"/>
     <use transform="translate(1648.922852 0.171875)" xlink:href="#DejaVuSans-50"/>
     <use transform="translate(1712.545898 0.171875)" xlink:href="#DejaVuSans-51"/>
     <use transform="translate(1776.168945 0.171875)" xlink:href="#DejaVuSans-49"/>
     <use transform="translate(1839.791992 0.171875)" xlink:href="#DejaVuSans-46"/>
     <use transform="translate(1868.954102 0.171875)" xlink:href="#DejaVuSans-56"/>
     <use transform="translate(1932.577148 0.171875)" xlink:href="#DejaVuSans-53"/>
     <use transform="translate(1996.200195 0.171875)" xlink:href="#DejaVuSans-56"/>
     <use transform="translate(2059.823242 0.171875)" xlink:href="#DejaVuSans-32"/>
     <use transform="translate(2091.610352 0.171875)" xlink:href="#DejaVuSans-71"/>
     <use transform="translate(2169.100586 0.171875)" xlink:href="#DejaVuSans-80"/>
     <use transform="translate(2229.40332 0.171875)" xlink:href="#DejaVuSans-97"/>
    </g>
   </g>
  </g>
 </g>
 <defs>
  <clipPath id="pa7d1a789c3">
   <rect height="266.112" width="357.12" x="57.6" y="41.472"/>
  </clipPath>
 </defs>
</svg>
